<?xml version="1.0" encoding="UTF-8" standalone="no"?>
<!DOCTYPE svg PUBLIC "-//W3C//DTD SVG 1.1//EN"
 "http://www.w3.org/Graphics/SVG/1.1/DTD/svg11.dtd">
<!-- Generated by graphviz version 2.47.0 (20210316.0004)
 -->
<!-- Title: dbml Pages: 1 -->
<svg width="1755pt" height="1137pt"
 viewBox="0.00 0.00 1755.07 1137.18" xmlns="http://www.w3.org/2000/svg" xmlns:xlink="http://www.w3.org/1999/xlink">
<g id="graph0" class="graph" transform="scale(1 1) rotate(0) translate(4 1133.18)">
<title>dbml</title>
<!-- pc -->
<g id="pc" class="node">
<title>pc</title>
<ellipse fill="none" stroke="black" stroke-width="0" cx="1157.41" cy="-342.24" rx="188.6" ry="342.48"/>
<polygon fill="#1d71b8" stroke="transparent" points="1026.41,-522.24 1026.41,-582.24 1289.41,-582.24 1289.41,-522.24 1026.41,-522.24"/>
<polygon fill="none" stroke="#29235c" points="1026.41,-522.24 1026.41,-582.24 1289.41,-582.24 1289.41,-522.24 1026.41,-522.24"/>
<text text-anchor="start" x="1078.76" y="-543.44" font-family="Helvetica,sans-Serif" font-weight="bold" font-size="32.00" fill="#ffffff"> &#160;&#160;&#160;&#160;&#160;&#160;pc &#160;&#160;&#160;&#160;&#160;&#160;</text>
<polygon fill="#e7e2dd" stroke="transparent" points="1026.41,-462.24 1026.41,-522.24 1289.41,-522.24 1289.41,-462.24 1026.41,-462.24"/>
<polygon fill="none" stroke="#29235c" points="1026.41,-462.24 1026.41,-522.24 1289.41,-522.24 1289.41,-462.24 1026.41,-462.24"/>
<text text-anchor="start" x="1037.41" y="-483.44" font-family="Helvetica,sans-Serif" font-weight="bold" font-size="32.00" fill="#29235c">id</text>
<text text-anchor="start" x="1062.3" y="-483.44" font-family="Helvetica,sans-Serif" font-size="32.00" fill="#29235c"> &#160;&#160;&#160;</text>
<text text-anchor="start" x="1244.63" y="-483.44" font-family="Helvetica,sans-Serif" font-style="italic" font-size="32.00" fill="#29235c">int</text>
<polygon fill="#e7e2dd" stroke="transparent" points="1026.41,-402.24 1026.41,-462.24 1289.41,-462.24 1289.41,-402.24 1026.41,-402.24"/>
<polygon fill="none" stroke="#29235c" points="1026.41,-402.24 1026.41,-462.24 1289.41,-462.24 1289.41,-402.24 1026.41,-402.24"/>
<text text-anchor="start" x="1037.41" y="-422.44" font-family="Helvetica,sans-Serif" font-size="32.00" fill="#29235c">marqueId &#160;&#160;&#160;</text>
<text text-anchor="start" x="1244.63" y="-423.44" font-family="Helvetica,sans-Serif" font-style="italic" font-size="32.00" fill="#29235c">int</text>
<polygon fill="#e7e2dd" stroke="transparent" points="1026.41,-342.24 1026.41,-402.24 1289.41,-402.24 1289.41,-342.24 1026.41,-342.24"/>
<polygon fill="none" stroke="#29235c" points="1026.41,-342.24 1026.41,-402.24 1289.41,-402.24 1289.41,-342.24 1026.41,-342.24"/>
<text text-anchor="start" x="1037.41" y="-362.44" font-family="Helvetica,sans-Serif" font-size="32.00" fill="#29235c">osId &#160;&#160;&#160;</text>
<text text-anchor="start" x="1244.63" y="-363.44" font-family="Helvetica,sans-Serif" font-style="italic" font-size="32.00" fill="#29235c">int</text>
<polygon fill="#e7e2dd" stroke="transparent" points="1026.41,-282.24 1026.41,-342.24 1289.41,-342.24 1289.41,-282.24 1026.41,-282.24"/>
<polygon fill="none" stroke="#29235c" points="1026.41,-282.24 1026.41,-342.24 1289.41,-342.24 1289.41,-282.24 1026.41,-282.24"/>
<text text-anchor="start" x="1037.41" y="-302.44" font-family="Helvetica,sans-Serif" font-size="32.00" fill="#29235c">disqueGB &#160;&#160;&#160;</text>
<text text-anchor="start" x="1244.63" y="-303.44" font-family="Helvetica,sans-Serif" font-style="italic" font-size="32.00" fill="#29235c">int</text>
<polygon fill="#e7e2dd" stroke="transparent" points="1026.41,-222.24 1026.41,-282.24 1289.41,-282.24 1289.41,-222.24 1026.41,-222.24"/>
<polygon fill="none" stroke="#29235c" points="1026.41,-222.24 1026.41,-282.24 1289.41,-282.24 1289.41,-222.24 1026.41,-222.24"/>
<text text-anchor="start" x="1037.41" y="-242.44" font-family="Helvetica,sans-Serif" font-size="32.00" fill="#29235c">ramGB &#160;&#160;&#160;</text>
<text text-anchor="start" x="1244.63" y="-243.44" font-family="Helvetica,sans-Serif" font-style="italic" font-size="32.00" fill="#29235c">int</text>
<polygon fill="#e7e2dd" stroke="transparent" points="1026.41,-162.24 1026.41,-222.24 1289.41,-222.24 1289.41,-162.24 1026.41,-162.24"/>
<polygon fill="none" stroke="#29235c" points="1026.41,-162.24 1026.41,-222.24 1289.41,-222.24 1289.41,-162.24 1026.41,-162.24"/>
<text text-anchor="start" x="1037.09" y="-182.44" font-family="Helvetica,sans-Serif" font-size="32.00" fill="#29235c">dateAchat &#160;&#160;&#160;</text>
<text text-anchor="start" x="1216.28" y="-183.44" font-family="Helvetica,sans-Serif" font-style="italic" font-size="32.00" fill="#29235c">date</text>
<polygon fill="#e7e2dd" stroke="transparent" points="1026.41,-102.24 1026.41,-162.24 1289.41,-162.24 1289.41,-102.24 1026.41,-102.24"/>
<polygon fill="none" stroke="#29235c" points="1026.41,-102.24 1026.41,-162.24 1289.41,-162.24 1289.41,-102.24 1026.41,-102.24"/>
<text text-anchor="start" x="1037.41" y="-122.44" font-family="Helvetica,sans-Serif" font-size="32.00" fill="#29235c">user &#160;&#160;&#160;</text>
<text text-anchor="start" x="1171.74" y="-123.44" font-family="Helvetica,sans-Serif" font-style="italic" font-size="32.00" fill="#29235c">varchar</text>
<polygon fill="none" stroke="#29235c" stroke-width="2" points="1024.91,-101.24 1024.91,-583.24 1289.91,-583.24 1289.91,-101.24 1024.91,-101.24"/>
</g>
<!-- marque -->
<g id="marque" class="node">
<title>marque</title>
<ellipse fill="none" stroke="black" stroke-width="0" cx="1564.64" cy="-571.24" rx="182.37" ry="130.22"/>
<polygon fill="#1d71b8" stroke="transparent" points="1437.64,-601.24 1437.64,-661.24 1691.64,-661.24 1691.64,-601.24 1437.64,-601.24"/>
<polygon fill="none" stroke="#29235c" points="1437.64,-601.24 1437.64,-661.24 1691.64,-661.24 1691.64,-601.24 1437.64,-601.24"/>
<text text-anchor="start" x="1448.16" y="-622.44" font-family="Helvetica,sans-Serif" font-weight="bold" font-size="32.00" fill="#ffffff"> &#160;&#160;&#160;&#160;&#160;&#160;marque &#160;&#160;&#160;&#160;&#160;&#160;</text>
<polygon fill="#e7e2dd" stroke="transparent" points="1437.64,-541.24 1437.64,-601.24 1691.64,-601.24 1691.64,-541.24 1437.64,-541.24"/>
<polygon fill="none" stroke="#29235c" points="1437.64,-541.24 1437.64,-601.24 1691.64,-601.24 1691.64,-541.24 1437.64,-541.24"/>
<text text-anchor="start" x="1448.64" y="-562.44" font-family="Helvetica,sans-Serif" font-weight="bold" font-size="32.00" fill="#29235c">id</text>
<text text-anchor="start" x="1473.53" y="-562.44" font-family="Helvetica,sans-Serif" font-size="32.00" fill="#29235c"> &#160;&#160;&#160;</text>
<text text-anchor="start" x="1646.86" y="-562.44" font-family="Helvetica,sans-Serif" font-style="italic" font-size="32.00" fill="#29235c">int</text>
<polygon fill="#e7e2dd" stroke="transparent" points="1437.64,-481.24 1437.64,-541.24 1691.64,-541.24 1691.64,-481.24 1437.64,-481.24"/>
<polygon fill="none" stroke="#29235c" points="1437.64,-481.24 1437.64,-541.24 1691.64,-541.24 1691.64,-481.24 1437.64,-481.24"/>
<text text-anchor="start" x="1448.64" y="-501.44" font-family="Helvetica,sans-Serif" font-size="32.00" fill="#29235c">nom &#160;&#160;&#160;</text>
<text text-anchor="start" x="1573.97" y="-502.44" font-family="Helvetica,sans-Serif" font-style="italic" font-size="32.00" fill="#29235c">varchar</text>
<polygon fill="none" stroke="#29235c" stroke-width="2" points="1436.64,-480.24 1436.64,-662.24 1692.64,-662.24 1692.64,-480.24 1436.64,-480.24"/>
</g>
<!-- pc&#45;&gt;marque -->
<!-- pc&#45;&gt;marque -->
<g id="edge6" class="edge">
<title>pc:e&#45;&gt;marque:w</title>
<path fill="none" stroke="#29235c" stroke-width="3" d="M1290.41,-432.24C1376.4,-432.24 1349.48,-560.07 1426.21,-570.56"/>
<polygon fill="#29235c" stroke="#29235c" stroke-width="3" points="1426.43,-574.08 1436.64,-571.24 1426.89,-567.09 1426.43,-574.08"/>
<text text-anchor="middle" x="1427.75" y="-580.84" font-family="Helvetica,sans-Serif" font-size="32.00" fill="#29235c">1</text>
<text text-anchor="middle" x="1296.63" y="-441.84" font-family="Helvetica,sans-Serif" font-size="32.00" fill="#29235c">*</text>
</g>
<!-- os -->
<g id="os" class="node">
<title>os</title>
<ellipse fill="none" stroke="black" stroke-width="0" cx="1564.64" cy="-293.24" rx="161.85" ry="130.22"/>
<polygon fill="#1d71b8" stroke="transparent" points="1452.64,-323.24 1452.64,-383.24 1677.64,-383.24 1677.64,-323.24 1452.64,-323.24"/>
<polygon fill="none" stroke="#29235c" points="1452.64,-323.24 1452.64,-383.24 1677.64,-383.24 1677.64,-323.24 1452.64,-323.24"/>
<text text-anchor="start" x="1486" y="-344.44" font-family="Helvetica,sans-Serif" font-weight="bold" font-size="32.00" fill="#ffffff"> &#160;&#160;&#160;&#160;&#160;&#160;os &#160;&#160;&#160;&#160;&#160;&#160;</text>
<polygon fill="#e7e2dd" stroke="transparent" points="1452.64,-263.24 1452.64,-323.24 1677.64,-323.24 1677.64,-263.24 1452.64,-263.24"/>
<polygon fill="none" stroke="#29235c" points="1452.64,-263.24 1452.64,-323.24 1677.64,-323.24 1677.64,-263.24 1452.64,-263.24"/>
<text text-anchor="start" x="1463.64" y="-284.44" font-family="Helvetica,sans-Serif" font-weight="bold" font-size="32.00" fill="#29235c">id</text>
<text text-anchor="start" x="1488.53" y="-284.44" font-family="Helvetica,sans-Serif" font-size="32.00" fill="#29235c"> &#160;&#160;&#160;</text>
<text text-anchor="start" x="1632.86" y="-284.44" font-family="Helvetica,sans-Serif" font-style="italic" font-size="32.00" fill="#29235c">int</text>
<polygon fill="#e7e2dd" stroke="transparent" points="1452.64,-203.24 1452.64,-263.24 1677.64,-263.24 1677.64,-203.24 1452.64,-203.24"/>
<polygon fill="none" stroke="#29235c" points="1452.64,-203.24 1452.64,-263.24 1677.64,-263.24 1677.64,-203.24 1452.64,-203.24"/>
<text text-anchor="start" x="1463.24" y="-223.44" font-family="Helvetica,sans-Serif" font-size="32.00" fill="#29235c">nom &#160;&#160;&#160;</text>
<text text-anchor="start" x="1560.3" y="-224.44" font-family="Helvetica,sans-Serif" font-style="italic" font-size="32.00" fill="#29235c">varchar</text>
<polygon fill="none" stroke="#29235c" stroke-width="2" points="1451.14,-202.24 1451.14,-384.24 1678.14,-384.24 1678.14,-202.24 1451.14,-202.24"/>
</g>
<!-- pc&#45;&gt;os -->
<!-- pc&#45;&gt;os -->
<g id="edge8" class="edge">
<title>pc:e&#45;&gt;os:w</title>
<path fill="none" stroke="#29235c" stroke-width="3" d="M1290.41,-372.24C1366.62,-372.24 1371.54,-300.18 1441.34,-293.7"/>
<polygon fill="#29235c" stroke="#29235c" stroke-width="3" points="1441.81,-297.19 1451.64,-293.24 1441.49,-290.19 1441.81,-297.19"/>
<text text-anchor="middle" x="1442.75" y="-302.84" font-family="Helvetica,sans-Serif" font-size="32.00" fill="#29235c">1</text>
<text text-anchor="middle" x="1296.63" y="-381.84" font-family="Helvetica,sans-Serif" font-size="32.00" fill="#29235c">*</text>
</g>
<!-- logiciel_instal -->
<g id="logiciel_instal" class="node">
<title>logiciel_instal</title>
<ellipse fill="none" stroke="black" stroke-width="0" cx="240.42" cy="-833.24" rx="240.33" ry="214.92"/>
<polygon fill="#1d71b8" stroke="transparent" points="72.42,-923.24 72.42,-983.24 408.42,-983.24 408.42,-923.24 72.42,-923.24"/>
<polygon fill="none" stroke="#29235c" points="72.42,-923.24 72.42,-983.24 408.42,-983.24 408.42,-923.24 72.42,-923.24"/>
<text text-anchor="start" x="83.05" y="-944.44" font-family="Helvetica,sans-Serif" font-weight="bold" font-size="32.00" fill="#ffffff"> &#160;&#160;&#160;&#160;&#160;&#160;logiciel_instal &#160;&#160;&#160;&#160;&#160;&#160;</text>
<polygon fill="#e7e2dd" stroke="transparent" points="72.42,-863.24 72.42,-923.24 408.42,-923.24 408.42,-863.24 72.42,-863.24"/>
<polygon fill="none" stroke="#29235c" points="72.42,-863.24 72.42,-923.24 408.42,-923.24 408.42,-863.24 72.42,-863.24"/>
<text text-anchor="start" x="83.42" y="-884.44" font-family="Helvetica,sans-Serif" font-weight="bold" font-size="32.00" fill="#29235c">id</text>
<text text-anchor="start" x="108.31" y="-884.44" font-family="Helvetica,sans-Serif" font-size="32.00" fill="#29235c"> &#160;&#160;&#160;</text>
<text text-anchor="start" x="363.63" y="-884.44" font-family="Helvetica,sans-Serif" font-style="italic" font-size="32.00" fill="#29235c">int</text>
<polygon fill="#e7e2dd" stroke="transparent" points="72.42,-803.24 72.42,-863.24 408.42,-863.24 408.42,-803.24 72.42,-803.24"/>
<polygon fill="none" stroke="#29235c" points="72.42,-803.24 72.42,-863.24 408.42,-863.24 408.42,-803.24 72.42,-803.24"/>
<text text-anchor="start" x="83.42" y="-823.44" font-family="Helvetica,sans-Serif" font-size="32.00" fill="#29235c">pcId &#160;&#160;&#160;</text>
<text text-anchor="start" x="363.63" y="-824.44" font-family="Helvetica,sans-Serif" font-style="italic" font-size="32.00" fill="#29235c">int</text>
<polygon fill="#e7e2dd" stroke="transparent" points="72.42,-743.24 72.42,-803.24 408.42,-803.24 408.42,-743.24 72.42,-743.24"/>
<polygon fill="none" stroke="#29235c" points="72.42,-743.24 72.42,-803.24 408.42,-803.24 408.42,-743.24 72.42,-743.24"/>
<text text-anchor="start" x="83.42" y="-763.44" font-family="Helvetica,sans-Serif" font-size="32.00" fill="#29235c">logicielId &#160;&#160;&#160;</text>
<text text-anchor="start" x="363.63" y="-764.44" font-family="Helvetica,sans-Serif" font-style="italic" font-size="32.00" fill="#29235c">int</text>
<polygon fill="#e7e2dd" stroke="transparent" points="72.42,-683.24 72.42,-743.24 408.42,-743.24 408.42,-683.24 72.42,-683.24"/>
<polygon fill="none" stroke="#29235c" points="72.42,-683.24 72.42,-743.24 408.42,-743.24 408.42,-683.24 72.42,-683.24"/>
<text text-anchor="start" x="83.42" y="-703.44" font-family="Helvetica,sans-Serif" font-size="32.00" fill="#29235c">techInstal &#160;&#160;&#160;</text>
<text text-anchor="start" x="363.63" y="-704.44" font-family="Helvetica,sans-Serif" font-style="italic" font-size="32.00" fill="#29235c">int</text>
<polygon fill="none" stroke="#29235c" stroke-width="2" points="71.42,-682.24 71.42,-984.24 409.42,-984.24 409.42,-682.24 71.42,-682.24"/>
</g>
<!-- logiciel_instal&#45;&gt;pc -->
<!-- logiciel_instal&#45;&gt;pc -->
<g id="edge2" class="edge">
<title>logiciel_instal:e&#45;&gt;pc:w</title>
<path fill="none" stroke="#29235c" stroke-width="3" d="M409.42,-833.24C519.83,-833.24 427,-673.44 516.83,-609.24 668.22,-501.05 759.46,-628.37 932.61,-560.24 976.85,-542.84 974.84,-499.02 1015.43,-492.94"/>
<polygon fill="#29235c" stroke="#29235c" stroke-width="3" points="1015.68,-496.43 1025.41,-492.24 1015.19,-489.45 1015.68,-496.43"/>
<text text-anchor="middle" x="1016.51" y="-501.84" font-family="Helvetica,sans-Serif" font-size="32.00" fill="#29235c">1</text>
<text text-anchor="middle" x="415.64" y="-842.84" font-family="Helvetica,sans-Serif" font-size="32.00" fill="#29235c">*</text>
</g>
<!-- logiciel -->
<g id="logiciel" class="node">
<title>logiciel</title>
<ellipse fill="none" stroke="black" stroke-width="0" cx="724.72" cy="-833.24" rx="190.84" ry="214.92"/>
<polygon fill="#1d71b8" stroke="transparent" points="591.72,-923.24 591.72,-983.24 857.72,-983.24 857.72,-923.24 591.72,-923.24"/>
<polygon fill="none" stroke="#29235c" points="591.72,-923.24 591.72,-983.24 857.72,-983.24 857.72,-923.24 591.72,-923.24"/>
<text text-anchor="start" x="613.59" y="-944.44" font-family="Helvetica,sans-Serif" font-weight="bold" font-size="32.00" fill="#ffffff"> &#160;&#160;&#160;&#160;&#160;&#160;logiciel &#160;&#160;&#160;&#160;&#160;&#160;</text>
<polygon fill="#e7e2dd" stroke="transparent" points="591.72,-863.24 591.72,-923.24 857.72,-923.24 857.72,-863.24 591.72,-863.24"/>
<polygon fill="none" stroke="#29235c" points="591.72,-863.24 591.72,-923.24 857.72,-923.24 857.72,-863.24 591.72,-863.24"/>
<text text-anchor="start" x="602.72" y="-884.44" font-family="Helvetica,sans-Serif" font-weight="bold" font-size="32.00" fill="#29235c">id</text>
<text text-anchor="start" x="627.61" y="-884.44" font-family="Helvetica,sans-Serif" font-size="32.00" fill="#29235c"> &#160;&#160;&#160;</text>
<text text-anchor="start" x="812.94" y="-884.44" font-family="Helvetica,sans-Serif" font-style="italic" font-size="32.00" fill="#29235c">int</text>
<polygon fill="#e7e2dd" stroke="transparent" points="591.72,-803.24 591.72,-863.24 857.72,-863.24 857.72,-803.24 591.72,-803.24"/>
<polygon fill="none" stroke="#29235c" points="591.72,-803.24 591.72,-863.24 857.72,-863.24 857.72,-803.24 591.72,-803.24"/>
<text text-anchor="start" x="602.72" y="-823.44" font-family="Helvetica,sans-Serif" font-size="32.00" fill="#29235c">nom &#160;&#160;&#160;</text>
<text text-anchor="start" x="740.05" y="-824.44" font-family="Helvetica,sans-Serif" font-style="italic" font-size="32.00" fill="#29235c">varchar</text>
<polygon fill="#e7e2dd" stroke="transparent" points="591.72,-743.24 591.72,-803.24 857.72,-803.24 857.72,-743.24 591.72,-743.24"/>
<polygon fill="none" stroke="#29235c" points="591.72,-743.24 591.72,-803.24 857.72,-803.24 857.72,-743.24 591.72,-743.24"/>
<text text-anchor="start" x="602.72" y="-763.44" font-family="Helvetica,sans-Serif" font-size="32.00" fill="#29235c">licence &#160;&#160;&#160;</text>
<text text-anchor="start" x="740.05" y="-764.44" font-family="Helvetica,sans-Serif" font-style="italic" font-size="32.00" fill="#29235c">varchar</text>
<polygon fill="#e7e2dd" stroke="transparent" points="591.72,-683.24 591.72,-743.24 857.72,-743.24 857.72,-683.24 591.72,-683.24"/>
<polygon fill="none" stroke="#29235c" points="591.72,-683.24 591.72,-743.24 857.72,-743.24 857.72,-683.24 591.72,-683.24"/>
<text text-anchor="start" x="602.38" y="-703.44" font-family="Helvetica,sans-Serif" font-size="32.00" fill="#29235c">version &#160;&#160;&#160;</text>
<text text-anchor="start" x="740.39" y="-704.44" font-family="Helvetica,sans-Serif" font-style="italic" font-size="32.00" fill="#29235c">varchar</text>
<polygon fill="none" stroke="#29235c" stroke-width="2" points="590.72,-682.24 590.72,-984.24 858.72,-984.24 858.72,-682.24 590.72,-682.24"/>
</g>
<!-- logiciel_instal&#45;&gt;logiciel -->
<!-- logiciel_instal&#45;&gt;logiciel -->
<g id="edge4" class="edge">
<title>logiciel_instal:e&#45;&gt;logiciel:w</title>
<path fill="none" stroke="#29235c" stroke-width="3" d="M409.42,-773.24C502.56,-773.24 494.81,-884.72 580.66,-892.78"/>
<polygon fill="#29235c" stroke="#29235c" stroke-width="3" points="580.57,-896.28 590.72,-893.24 580.89,-889.29 580.57,-896.28"/>
<text text-anchor="middle" x="581.83" y="-902.84" font-family="Helvetica,sans-Serif" font-size="32.00" fill="#29235c">1</text>
<text text-anchor="middle" x="415.64" y="-782.84" font-family="Helvetica,sans-Serif" font-size="32.00" fill="#29235c">*</text>
</g>
<!-- technicien -->
<g id="technicien" class="node">
<title>technicien</title>
<ellipse fill="none" stroke="black" stroke-width="0" cx="724.72" cy="-309.24" rx="207.78" ry="214.92"/>
<polygon fill="#1d71b8" stroke="transparent" points="579.72,-399.24 579.72,-459.24 869.72,-459.24 869.72,-399.24 579.72,-399.24"/>
<polygon fill="none" stroke="#29235c" points="579.72,-399.24 579.72,-459.24 869.72,-459.24 869.72,-399.24 579.72,-399.24"/>
<text text-anchor="start" x="590.45" y="-420.44" font-family="Helvetica,sans-Serif" font-weight="bold" font-size="32.00" fill="#ffffff"> &#160;&#160;&#160;&#160;&#160;&#160;technicien &#160;&#160;&#160;&#160;&#160;&#160;</text>
<polygon fill="#e7e2dd" stroke="transparent" points="579.72,-339.24 579.72,-399.24 869.72,-399.24 869.72,-339.24 579.72,-339.24"/>
<polygon fill="none" stroke="#29235c" points="579.72,-339.24 579.72,-399.24 869.72,-399.24 869.72,-339.24 579.72,-339.24"/>
<text text-anchor="start" x="590.72" y="-360.44" font-family="Helvetica,sans-Serif" font-weight="bold" font-size="32.00" fill="#29235c">id</text>
<text text-anchor="start" x="615.61" y="-360.44" font-family="Helvetica,sans-Serif" font-size="32.00" fill="#29235c"> &#160;&#160;&#160;</text>
<text text-anchor="start" x="824.94" y="-360.44" font-family="Helvetica,sans-Serif" font-style="italic" font-size="32.00" fill="#29235c">int</text>
<polygon fill="#e7e2dd" stroke="transparent" points="579.72,-279.24 579.72,-339.24 869.72,-339.24 869.72,-279.24 579.72,-279.24"/>
<polygon fill="none" stroke="#29235c" points="579.72,-279.24 579.72,-339.24 869.72,-339.24 869.72,-279.24 579.72,-279.24"/>
<text text-anchor="start" x="590.72" y="-299.44" font-family="Helvetica,sans-Serif" font-size="32.00" fill="#29235c">nom &#160;&#160;&#160;</text>
<text text-anchor="start" x="752.05" y="-300.44" font-family="Helvetica,sans-Serif" font-style="italic" font-size="32.00" fill="#29235c">varchar</text>
<polygon fill="#e7e2dd" stroke="transparent" points="579.72,-219.24 579.72,-279.24 869.72,-279.24 869.72,-219.24 579.72,-219.24"/>
<polygon fill="none" stroke="#29235c" points="579.72,-219.24 579.72,-279.24 869.72,-279.24 869.72,-219.24 579.72,-219.24"/>
<text text-anchor="start" x="590.72" y="-239.44" font-family="Helvetica,sans-Serif" font-size="32.00" fill="#29235c">dateInterv &#160;&#160;&#160;</text>
<text text-anchor="start" x="796.46" y="-240.44" font-family="Helvetica,sans-Serif" font-style="italic" font-size="32.00" fill="#29235c">date</text>
<polygon fill="#e7e2dd" stroke="transparent" points="579.72,-159.24 579.72,-219.24 869.72,-219.24 869.72,-159.24 579.72,-159.24"/>
<polygon fill="none" stroke="#29235c" points="579.72,-159.24 579.72,-219.24 869.72,-219.24 869.72,-159.24 579.72,-159.24"/>
<text text-anchor="start" x="590.72" y="-179.44" font-family="Helvetica,sans-Serif" font-size="32.00" fill="#29235c">pcInterv &#160;&#160;&#160;</text>
<text text-anchor="start" x="824.94" y="-180.44" font-family="Helvetica,sans-Serif" font-style="italic" font-size="32.00" fill="#29235c">int</text>
<polygon fill="none" stroke="#29235c" stroke-width="2" points="578.72,-158.24 578.72,-460.24 870.72,-460.24 870.72,-158.24 578.72,-158.24"/>
</g>
<!-- logiciel_instal&#45;&gt;technicien -->
<!-- logiciel_instal&#45;&gt;technicien -->
<g id="edge16" class="edge">
<title>logiciel_instal:e&#45;&gt;technicien:w</title>
<path fill="none" stroke="#29235c" stroke-width="3" d="M409.42,-713.24C576.32,-713.24 415.21,-383.2 568.66,-369.67"/>
<polygon fill="#29235c" stroke="#29235c" stroke-width="3" points="568.88,-373.16 578.72,-369.24 568.58,-366.17 568.88,-373.16"/>
<text text-anchor="middle" x="569.83" y="-378.84" font-family="Helvetica,sans-Serif" font-size="32.00" fill="#29235c">1</text>
<text text-anchor="middle" x="415.64" y="-722.84" font-family="Helvetica,sans-Serif" font-size="32.00" fill="#29235c">*</text>
</g>
<!-- technicien&#45;&gt;pc -->
<!-- technicien&#45;&gt;pc -->
<g id="edge14" class="edge">
<title>technicien:e&#45;&gt;pc:w</title>
<path fill="none" stroke="#29235c" stroke-width="3" d="M870.72,-189.24C1018.38,-189.24 880.97,-478.2 1015.26,-491.75"/>
<polygon fill="#29235c" stroke="#29235c" stroke-width="3" points="1015.25,-495.25 1025.41,-492.24 1015.59,-488.26 1015.25,-495.25"/>
<text text-anchor="middle" x="1034.3" y="-501.84" font-family="Helvetica,sans-Serif" font-size="32.00" fill="#29235c">1</text>
<text text-anchor="middle" x="864.5" y="-198.84" font-family="Helvetica,sans-Serif" font-size="32.00" fill="#29235c">*</text>
</g>
<!-- maj -->
<g id="maj" class="node">
<title>maj</title>
<ellipse fill="none" stroke="black" stroke-width="0" cx="240.42" cy="-347.24" rx="167.67" ry="214.92"/>
<polygon fill="#1d71b8" stroke="transparent" points="124.42,-437.24 124.42,-497.24 357.42,-497.24 357.42,-437.24 124.42,-437.24"/>
<polygon fill="none" stroke="#29235c" points="124.42,-437.24 124.42,-497.24 357.42,-497.24 357.42,-437.24 124.42,-437.24"/>
<text text-anchor="start" x="152.9" y="-458.44" font-family="Helvetica,sans-Serif" font-weight="bold" font-size="32.00" fill="#ffffff"> &#160;&#160;&#160;&#160;&#160;&#160;maj &#160;&#160;&#160;&#160;&#160;&#160;</text>
<polygon fill="#e7e2dd" stroke="transparent" points="124.42,-377.24 124.42,-437.24 357.42,-437.24 357.42,-377.24 124.42,-377.24"/>
<polygon fill="none" stroke="#29235c" points="124.42,-377.24 124.42,-437.24 357.42,-437.24 357.42,-377.24 124.42,-377.24"/>
<text text-anchor="start" x="135.42" y="-398.44" font-family="Helvetica,sans-Serif" font-weight="bold" font-size="32.00" fill="#29235c">id</text>
<text text-anchor="start" x="160.31" y="-398.44" font-family="Helvetica,sans-Serif" font-size="32.00" fill="#29235c"> &#160;&#160;&#160;</text>
<text text-anchor="start" x="312.63" y="-398.44" font-family="Helvetica,sans-Serif" font-style="italic" font-size="32.00" fill="#29235c">int</text>
<polygon fill="#e7e2dd" stroke="transparent" points="124.42,-317.24 124.42,-377.24 357.42,-377.24 357.42,-317.24 124.42,-317.24"/>
<polygon fill="none" stroke="#29235c" points="124.42,-317.24 124.42,-377.24 357.42,-377.24 357.42,-317.24 124.42,-317.24"/>
<text text-anchor="start" x="135.42" y="-337.44" font-family="Helvetica,sans-Serif" font-size="32.00" fill="#29235c">pcMaj &#160;&#160;&#160;</text>
<text text-anchor="start" x="312.63" y="-338.44" font-family="Helvetica,sans-Serif" font-style="italic" font-size="32.00" fill="#29235c">int</text>
<polygon fill="#e7e2dd" stroke="transparent" points="124.42,-257.24 124.42,-317.24 357.42,-317.24 357.42,-257.24 124.42,-257.24"/>
<polygon fill="none" stroke="#29235c" points="124.42,-257.24 124.42,-317.24 357.42,-317.24 357.42,-257.24 124.42,-257.24"/>
<text text-anchor="start" x="135.42" y="-277.44" font-family="Helvetica,sans-Serif" font-size="32.00" fill="#29235c">techMaj &#160;&#160;&#160;</text>
<text text-anchor="start" x="312.63" y="-278.44" font-family="Helvetica,sans-Serif" font-style="italic" font-size="32.00" fill="#29235c">int</text>
<polygon fill="#e7e2dd" stroke="transparent" points="124.42,-197.24 124.42,-257.24 357.42,-257.24 357.42,-197.24 124.42,-197.24"/>
<polygon fill="none" stroke="#29235c" points="124.42,-197.24 124.42,-257.24 357.42,-257.24 357.42,-197.24 124.42,-197.24"/>
<text text-anchor="start" x="135.23" y="-217.44" font-family="Helvetica,sans-Serif" font-size="32.00" fill="#29235c">dateMaj &#160;&#160;&#160;</text>
<text text-anchor="start" x="284.29" y="-218.44" font-family="Helvetica,sans-Serif" font-style="italic" font-size="32.00" fill="#29235c">date</text>
<polygon fill="none" stroke="#29235c" stroke-width="2" points="122.92,-196.24 122.92,-498.24 357.92,-498.24 357.92,-196.24 122.92,-196.24"/>
</g>
<!-- maj&#45;&gt;pc -->
<!-- maj&#45;&gt;pc -->
<g id="edge10" class="edge">
<title>maj:e&#45;&gt;pc:w</title>
<path fill="none" stroke="#29235c" stroke-width="3" d="M358.42,-347.24C494.49,-347.24 398.31,-152.08 516.83,-85.24 677.79,5.53 788.15,29.99 932.61,-85.24 1074.82,-198.67 849.02,-480.93 1015.02,-491.91"/>
<polygon fill="#29235c" stroke="#29235c" stroke-width="3" points="1015.3,-495.42 1025.41,-492.24 1015.53,-488.42 1015.3,-495.42"/>
<text text-anchor="middle" x="1016.51" y="-463.44" font-family="Helvetica,sans-Serif" font-size="32.00" fill="#29235c">1</text>
<text text-anchor="middle" x="364.64" y="-356.84" font-family="Helvetica,sans-Serif" font-size="32.00" fill="#29235c">*</text>
</g>
<!-- maj&#45;&gt;technicien -->
<!-- maj&#45;&gt;technicien -->
<g id="edge12" class="edge">
<title>maj:e&#45;&gt;technicien:w</title>
<path fill="none" stroke="#29235c" stroke-width="3" d="M358.42,-287.24C459.42,-287.24 473.39,-363.88 568.62,-368.97"/>
<polygon fill="#29235c" stroke="#29235c" stroke-width="3" points="568.63,-372.48 578.72,-369.24 568.82,-365.48 568.63,-372.48"/>
<text text-anchor="middle" x="587.62" y="-378.84" font-family="Helvetica,sans-Serif" font-size="32.00" fill="#29235c">1</text>
<text text-anchor="middle" x="364.64" y="-296.84" font-family="Helvetica,sans-Serif" font-size="32.00" fill="#29235c">*</text>
</g>
</g>
</svg>
