<?xml version="1.0" encoding="UTF-8" standalone="no"?>
<!DOCTYPE svg PUBLIC "-//W3C//DTD SVG 1.1//EN"
 "http://www.w3.org/Graphics/SVG/1.1/DTD/svg11.dtd">
<!-- Generated by graphviz version 2.47.0 (20210316.0004)
 -->
<!-- Title: dbml Pages: 1 -->
<svg width="1945pt" height="1113pt"
 viewBox="0.00 0.00 1944.58 1112.94" xmlns="http://www.w3.org/2000/svg" xmlns:xlink="http://www.w3.org/1999/xlink">
<g id="graph0" class="graph" transform="scale(1 1) rotate(0) translate(4 1108.94)">
<title>dbml</title>
<!-- pc -->
<g id="pc" class="node">
<title>pc</title>
<ellipse fill="none" stroke="black" stroke-width="0" cx="1255.7" cy="-347.97" rx="214.92" ry="342.48"/>
<polygon fill="#1d71b8" stroke="transparent" points="1105.7,-527.97 1105.7,-587.97 1405.7,-587.97 1405.7,-527.97 1105.7,-527.97"/>
<polygon fill="none" stroke="#29235c" points="1105.7,-527.97 1105.7,-587.97 1405.7,-587.97 1405.7,-527.97 1105.7,-527.97"/>
<text text-anchor="start" x="1176.55" y="-549.17" font-family="Helvetica,sans-Serif" font-weight="bold" font-size="32.00" fill="#ffffff"> &#160;&#160;&#160;&#160;&#160;&#160;pc &#160;&#160;&#160;&#160;&#160;&#160;</text>
<polygon fill="#e7e2dd" stroke="transparent" points="1105.7,-467.97 1105.7,-527.97 1405.7,-527.97 1405.7,-467.97 1105.7,-467.97"/>
<polygon fill="none" stroke="#29235c" points="1105.7,-467.97 1105.7,-527.97 1405.7,-527.97 1405.7,-467.97 1105.7,-467.97"/>
<text text-anchor="start" x="1116.7" y="-489.17" font-family="Helvetica,sans-Serif" font-weight="bold" font-size="32.00" fill="#29235c">id</text>
<text text-anchor="start" x="1141.59" y="-489.17" font-family="Helvetica,sans-Serif" font-size="32.00" fill="#29235c"> &#160;&#160;&#160;</text>
<text text-anchor="start" x="1360.91" y="-489.17" font-family="Helvetica,sans-Serif" font-style="italic" font-size="32.00" fill="#29235c">int</text>
<polygon fill="#e7e2dd" stroke="transparent" points="1105.7,-407.97 1105.7,-467.97 1405.7,-467.97 1405.7,-407.97 1105.7,-407.97"/>
<polygon fill="none" stroke="#29235c" points="1105.7,-407.97 1105.7,-467.97 1405.7,-467.97 1405.7,-407.97 1105.7,-407.97"/>
<text text-anchor="start" x="1116.7" y="-428.17" font-family="Helvetica,sans-Serif" font-size="32.00" fill="#29235c">marqueId &#160;&#160;&#160;</text>
<text text-anchor="start" x="1360.91" y="-429.17" font-family="Helvetica,sans-Serif" font-style="italic" font-size="32.00" fill="#29235c">int</text>
<polygon fill="#e7e2dd" stroke="transparent" points="1105.7,-347.97 1105.7,-407.97 1405.7,-407.97 1405.7,-347.97 1105.7,-347.97"/>
<polygon fill="none" stroke="#29235c" points="1105.7,-347.97 1105.7,-407.97 1405.7,-407.97 1405.7,-347.97 1105.7,-347.97"/>
<text text-anchor="start" x="1116.7" y="-368.17" font-family="Helvetica,sans-Serif" font-size="32.00" fill="#29235c">osId &#160;&#160;&#160;</text>
<text text-anchor="start" x="1360.91" y="-369.17" font-family="Helvetica,sans-Serif" font-style="italic" font-size="32.00" fill="#29235c">int</text>
<polygon fill="#e7e2dd" stroke="transparent" points="1105.7,-287.97 1105.7,-347.97 1405.7,-347.97 1405.7,-287.97 1105.7,-287.97"/>
<polygon fill="none" stroke="#29235c" points="1105.7,-287.97 1105.7,-347.97 1405.7,-347.97 1405.7,-287.97 1105.7,-287.97"/>
<text text-anchor="start" x="1116.7" y="-308.17" font-family="Helvetica,sans-Serif" font-size="32.00" fill="#29235c">disqueGB &#160;&#160;&#160;</text>
<text text-anchor="start" x="1360.91" y="-309.17" font-family="Helvetica,sans-Serif" font-style="italic" font-size="32.00" fill="#29235c">int</text>
<polygon fill="#e7e2dd" stroke="transparent" points="1105.7,-227.97 1105.7,-287.97 1405.7,-287.97 1405.7,-227.97 1105.7,-227.97"/>
<polygon fill="none" stroke="#29235c" points="1105.7,-227.97 1105.7,-287.97 1405.7,-287.97 1405.7,-227.97 1105.7,-227.97"/>
<text text-anchor="start" x="1116.7" y="-248.17" font-family="Helvetica,sans-Serif" font-size="32.00" fill="#29235c">ramGB &#160;&#160;&#160;</text>
<text text-anchor="start" x="1360.91" y="-249.17" font-family="Helvetica,sans-Serif" font-style="italic" font-size="32.00" fill="#29235c">int</text>
<polygon fill="#e7e2dd" stroke="transparent" points="1105.7,-167.97 1105.7,-227.97 1405.7,-227.97 1405.7,-167.97 1105.7,-167.97"/>
<polygon fill="none" stroke="#29235c" points="1105.7,-167.97 1105.7,-227.97 1405.7,-227.97 1405.7,-167.97 1105.7,-167.97"/>
<text text-anchor="start" x="1116.7" y="-188.17" font-family="Helvetica,sans-Serif" font-size="32.00" fill="#29235c">dateAchat &#160;&#160;&#160;</text>
<text text-anchor="start" x="1332.44" y="-189.17" font-family="Helvetica,sans-Serif" font-style="italic" font-size="32.00" fill="#29235c">date</text>
<polygon fill="#e7e2dd" stroke="transparent" points="1105.7,-107.97 1105.7,-167.97 1405.7,-167.97 1405.7,-107.97 1105.7,-107.97"/>
<polygon fill="none" stroke="#29235c" points="1105.7,-107.97 1105.7,-167.97 1405.7,-167.97 1405.7,-107.97 1105.7,-107.97"/>
<text text-anchor="start" x="1116.3" y="-128.17" font-family="Helvetica,sans-Serif" font-size="32.00" fill="#29235c">user &#160;&#160;&#160;</text>
<text text-anchor="start" x="1213.52" y="-129.17" font-family="Helvetica,sans-Serif" font-style="italic" font-size="32.00" fill="#29235c">varchar(255)</text>
<polygon fill="none" stroke="#29235c" stroke-width="2" points="1104.7,-106.97 1104.7,-588.97 1406.7,-588.97 1406.7,-106.97 1104.7,-106.97"/>
</g>
<!-- marque -->
<g id="marque" class="node">
<title>marque</title>
<ellipse fill="none" stroke="black" stroke-width="0" cx="1721.62" cy="-576.97" rx="214.92" ry="130.22"/>
<polygon fill="#1d71b8" stroke="transparent" points="1571.62,-606.97 1571.62,-666.97 1871.62,-666.97 1871.62,-606.97 1571.62,-606.97"/>
<polygon fill="none" stroke="#29235c" points="1571.62,-606.97 1571.62,-666.97 1871.62,-666.97 1871.62,-606.97 1571.62,-606.97"/>
<text text-anchor="start" x="1605.14" y="-628.17" font-family="Helvetica,sans-Serif" font-weight="bold" font-size="32.00" fill="#ffffff"> &#160;&#160;&#160;&#160;&#160;&#160;marque &#160;&#160;&#160;&#160;&#160;&#160;</text>
<polygon fill="#e7e2dd" stroke="transparent" points="1571.62,-546.97 1571.62,-606.97 1871.62,-606.97 1871.62,-546.97 1571.62,-546.97"/>
<polygon fill="none" stroke="#29235c" points="1571.62,-546.97 1571.62,-606.97 1871.62,-606.97 1871.62,-546.97 1571.62,-546.97"/>
<text text-anchor="start" x="1582.62" y="-568.17" font-family="Helvetica,sans-Serif" font-weight="bold" font-size="32.00" fill="#29235c">id</text>
<text text-anchor="start" x="1607.51" y="-568.17" font-family="Helvetica,sans-Serif" font-size="32.00" fill="#29235c"> &#160;&#160;&#160;</text>
<text text-anchor="start" x="1826.84" y="-568.17" font-family="Helvetica,sans-Serif" font-style="italic" font-size="32.00" fill="#29235c">int</text>
<polygon fill="#e7e2dd" stroke="transparent" points="1571.62,-486.97 1571.62,-546.97 1871.62,-546.97 1871.62,-486.97 1571.62,-486.97"/>
<polygon fill="none" stroke="#29235c" points="1571.62,-486.97 1571.62,-546.97 1871.62,-546.97 1871.62,-486.97 1571.62,-486.97"/>
<text text-anchor="start" x="1582.22" y="-507.17" font-family="Helvetica,sans-Serif" font-size="32.00" fill="#29235c">nom &#160;&#160;&#160;</text>
<text text-anchor="start" x="1679.45" y="-508.17" font-family="Helvetica,sans-Serif" font-style="italic" font-size="32.00" fill="#29235c">varchar(255)</text>
<polygon fill="none" stroke="#29235c" stroke-width="2" points="1570.62,-485.97 1570.62,-667.97 1872.62,-667.97 1872.62,-485.97 1570.62,-485.97"/>
</g>
<!-- pc&#45;&gt;marque -->
<!-- pc&#45;&gt;marque -->
<g id="edge6" class="edge">
<title>pc:e&#45;&gt;marque:w</title>
<path fill="none" stroke="#29235c" stroke-width="3" d="M1406.7,-437.97C1498.67,-437.97 1476.94,-566.85 1560.48,-576.41"/>
<polygon fill="#29235c" stroke="#29235c" stroke-width="3" points="1560.44,-579.92 1570.62,-576.97 1560.83,-572.93 1560.44,-579.92"/>
<text text-anchor="middle" x="1579.51" y="-586.57" font-family="Helvetica,sans-Serif" font-size="32.00" fill="#29235c">1</text>
<text text-anchor="middle" x="1412.92" y="-447.57" font-family="Helvetica,sans-Serif" font-size="32.00" fill="#29235c">*</text>
</g>
<!-- os -->
<g id="os" class="node">
<title>os</title>
<ellipse fill="none" stroke="black" stroke-width="0" cx="1721.62" cy="-298.97" rx="214.92" ry="130.22"/>
<polygon fill="#1d71b8" stroke="transparent" points="1571.62,-328.97 1571.62,-388.97 1871.62,-388.97 1871.62,-328.97 1571.62,-328.97"/>
<polygon fill="none" stroke="#29235c" points="1571.62,-328.97 1571.62,-388.97 1871.62,-388.97 1871.62,-328.97 1571.62,-328.97"/>
<text text-anchor="start" x="1642.47" y="-350.17" font-family="Helvetica,sans-Serif" font-weight="bold" font-size="32.00" fill="#ffffff"> &#160;&#160;&#160;&#160;&#160;&#160;os &#160;&#160;&#160;&#160;&#160;&#160;</text>
<polygon fill="#e7e2dd" stroke="transparent" points="1571.62,-268.97 1571.62,-328.97 1871.62,-328.97 1871.62,-268.97 1571.62,-268.97"/>
<polygon fill="none" stroke="#29235c" points="1571.62,-268.97 1571.62,-328.97 1871.62,-328.97 1871.62,-268.97 1571.62,-268.97"/>
<text text-anchor="start" x="1582.62" y="-290.17" font-family="Helvetica,sans-Serif" font-weight="bold" font-size="32.00" fill="#29235c">id</text>
<text text-anchor="start" x="1607.51" y="-290.17" font-family="Helvetica,sans-Serif" font-size="32.00" fill="#29235c"> &#160;&#160;&#160;</text>
<text text-anchor="start" x="1826.84" y="-290.17" font-family="Helvetica,sans-Serif" font-style="italic" font-size="32.00" fill="#29235c">int</text>
<polygon fill="#e7e2dd" stroke="transparent" points="1571.62,-208.97 1571.62,-268.97 1871.62,-268.97 1871.62,-208.97 1571.62,-208.97"/>
<polygon fill="none" stroke="#29235c" points="1571.62,-208.97 1571.62,-268.97 1871.62,-268.97 1871.62,-208.97 1571.62,-208.97"/>
<text text-anchor="start" x="1582.22" y="-229.17" font-family="Helvetica,sans-Serif" font-size="32.00" fill="#29235c">nom &#160;&#160;&#160;</text>
<text text-anchor="start" x="1679.45" y="-230.17" font-family="Helvetica,sans-Serif" font-style="italic" font-size="32.00" fill="#29235c">varchar(255)</text>
<polygon fill="none" stroke="#29235c" stroke-width="2" points="1570.62,-207.97 1570.62,-389.97 1872.62,-389.97 1872.62,-207.97 1570.62,-207.97"/>
</g>
<!-- pc&#45;&gt;os -->
<!-- pc&#45;&gt;os -->
<g id="edge8" class="edge">
<title>pc:e&#45;&gt;os:w</title>
<path fill="none" stroke="#29235c" stroke-width="3" d="M1406.7,-377.97C1484.09,-377.97 1489.41,-305.62 1560.62,-299.4"/>
<polygon fill="#29235c" stroke="#29235c" stroke-width="3" points="1560.78,-302.89 1570.62,-298.97 1560.48,-295.9 1560.78,-302.89"/>
<text text-anchor="middle" x="1579.51" y="-308.57" font-family="Helvetica,sans-Serif" font-size="32.00" fill="#29235c">1</text>
<text text-anchor="middle" x="1412.92" y="-387.57" font-family="Helvetica,sans-Serif" font-size="32.00" fill="#29235c">*</text>
</g>
<!-- logiciel_instal -->
<g id="logiciel_instal" class="node">
<title>logiciel_instal</title>
<ellipse fill="none" stroke="black" stroke-width="0" cx="240.42" cy="-838.97" rx="240.33" ry="214.92"/>
<polygon fill="#1d71b8" stroke="transparent" points="72.42,-928.97 72.42,-988.97 408.42,-988.97 408.42,-928.97 72.42,-928.97"/>
<polygon fill="none" stroke="#29235c" points="72.42,-928.97 72.42,-988.97 408.42,-988.97 408.42,-928.97 72.42,-928.97"/>
<text text-anchor="start" x="83.05" y="-950.17" font-family="Helvetica,sans-Serif" font-weight="bold" font-size="32.00" fill="#ffffff"> &#160;&#160;&#160;&#160;&#160;&#160;logiciel_instal &#160;&#160;&#160;&#160;&#160;&#160;</text>
<polygon fill="#e7e2dd" stroke="transparent" points="72.42,-868.97 72.42,-928.97 408.42,-928.97 408.42,-868.97 72.42,-868.97"/>
<polygon fill="none" stroke="#29235c" points="72.42,-868.97 72.42,-928.97 408.42,-928.97 408.42,-868.97 72.42,-868.97"/>
<text text-anchor="start" x="83.42" y="-890.17" font-family="Helvetica,sans-Serif" font-weight="bold" font-size="32.00" fill="#29235c">id</text>
<text text-anchor="start" x="108.31" y="-890.17" font-family="Helvetica,sans-Serif" font-size="32.00" fill="#29235c"> &#160;&#160;&#160;</text>
<text text-anchor="start" x="363.63" y="-890.17" font-family="Helvetica,sans-Serif" font-style="italic" font-size="32.00" fill="#29235c">int</text>
<polygon fill="#e7e2dd" stroke="transparent" points="72.42,-808.97 72.42,-868.97 408.42,-868.97 408.42,-808.97 72.42,-808.97"/>
<polygon fill="none" stroke="#29235c" points="72.42,-808.97 72.42,-868.97 408.42,-868.97 408.42,-808.97 72.42,-808.97"/>
<text text-anchor="start" x="83.42" y="-829.17" font-family="Helvetica,sans-Serif" font-size="32.00" fill="#29235c">pcId &#160;&#160;&#160;</text>
<text text-anchor="start" x="363.63" y="-830.17" font-family="Helvetica,sans-Serif" font-style="italic" font-size="32.00" fill="#29235c">int</text>
<polygon fill="#e7e2dd" stroke="transparent" points="72.42,-748.97 72.42,-808.97 408.42,-808.97 408.42,-748.97 72.42,-748.97"/>
<polygon fill="none" stroke="#29235c" points="72.42,-748.97 72.42,-808.97 408.42,-808.97 408.42,-748.97 72.42,-748.97"/>
<text text-anchor="start" x="83.42" y="-769.17" font-family="Helvetica,sans-Serif" font-size="32.00" fill="#29235c">logicielId &#160;&#160;&#160;</text>
<text text-anchor="start" x="363.63" y="-770.17" font-family="Helvetica,sans-Serif" font-style="italic" font-size="32.00" fill="#29235c">int</text>
<polygon fill="#e7e2dd" stroke="transparent" points="72.42,-688.97 72.42,-748.97 408.42,-748.97 408.42,-688.97 72.42,-688.97"/>
<polygon fill="none" stroke="#29235c" points="72.42,-688.97 72.42,-748.97 408.42,-748.97 408.42,-688.97 72.42,-688.97"/>
<text text-anchor="start" x="83.42" y="-709.17" font-family="Helvetica,sans-Serif" font-size="32.00" fill="#29235c">techInstal &#160;&#160;&#160;</text>
<text text-anchor="start" x="363.63" y="-710.17" font-family="Helvetica,sans-Serif" font-style="italic" font-size="32.00" fill="#29235c">int</text>
<polygon fill="none" stroke="#29235c" stroke-width="2" points="71.42,-687.97 71.42,-989.97 409.42,-989.97 409.42,-687.97 71.42,-687.97"/>
</g>
<!-- logiciel_instal&#45;&gt;pc -->
<!-- logiciel_instal&#45;&gt;pc -->
<g id="edge2" class="edge">
<title>logiciel_instal:e&#45;&gt;pc:w</title>
<path fill="none" stroke="#29235c" stroke-width="3" d="M409.42,-838.97C519.83,-838.97 426.32,-678.21 516.83,-614.97 606.12,-552.59 902.55,-605.68 1004.74,-567.97 1052.24,-550.45 1050.9,-504.63 1094.64,-498.63"/>
<polygon fill="#29235c" stroke="#29235c" stroke-width="3" points="1094.94,-502.11 1104.7,-497.97 1094.49,-495.13 1094.94,-502.11"/>
<text text-anchor="middle" x="1113.59" y="-507.57" font-family="Helvetica,sans-Serif" font-size="32.00" fill="#29235c">1</text>
<text text-anchor="middle" x="403.19" y="-848.57" font-family="Helvetica,sans-Serif" font-size="32.00" fill="#29235c">*</text>
</g>
<!-- logiciel -->
<g id="logiciel" class="node">
<title>logiciel</title>
<ellipse fill="none" stroke="black" stroke-width="0" cx="760.78" cy="-838.97" rx="243.9" ry="214.92"/>
<polygon fill="#1d71b8" stroke="transparent" points="590.78,-928.97 590.78,-988.97 931.78,-988.97 931.78,-928.97 590.78,-928.97"/>
<polygon fill="none" stroke="#29235c" points="590.78,-928.97 590.78,-988.97 931.78,-988.97 931.78,-928.97 590.78,-928.97"/>
<text text-anchor="start" x="650.15" y="-950.17" font-family="Helvetica,sans-Serif" font-weight="bold" font-size="32.00" fill="#ffffff"> &#160;&#160;&#160;&#160;&#160;&#160;logiciel &#160;&#160;&#160;&#160;&#160;&#160;</text>
<polygon fill="#e7e2dd" stroke="transparent" points="590.78,-868.97 590.78,-928.97 931.78,-928.97 931.78,-868.97 590.78,-868.97"/>
<polygon fill="none" stroke="#29235c" points="590.78,-868.97 590.78,-928.97 931.78,-928.97 931.78,-868.97 590.78,-868.97"/>
<text text-anchor="start" x="601.78" y="-890.17" font-family="Helvetica,sans-Serif" font-weight="bold" font-size="32.00" fill="#29235c">id</text>
<text text-anchor="start" x="626.67" y="-890.17" font-family="Helvetica,sans-Serif" font-size="32.00" fill="#29235c"> &#160;&#160;&#160;</text>
<text text-anchor="start" x="887" y="-890.17" font-family="Helvetica,sans-Serif" font-style="italic" font-size="32.00" fill="#29235c">int</text>
<polygon fill="#e7e2dd" stroke="transparent" points="590.78,-808.97 590.78,-868.97 931.78,-868.97 931.78,-808.97 590.78,-808.97"/>
<polygon fill="none" stroke="#29235c" points="590.78,-808.97 590.78,-868.97 931.78,-868.97 931.78,-808.97 590.78,-808.97"/>
<text text-anchor="start" x="601.78" y="-829.17" font-family="Helvetica,sans-Serif" font-size="32.00" fill="#29235c">nom &#160;&#160;&#160;</text>
<text text-anchor="start" x="739.44" y="-830.17" font-family="Helvetica,sans-Serif" font-style="italic" font-size="32.00" fill="#29235c">varchar(255)</text>
<polygon fill="#e7e2dd" stroke="transparent" points="590.78,-748.97 590.78,-808.97 931.78,-808.97 931.78,-748.97 590.78,-748.97"/>
<polygon fill="none" stroke="#29235c" points="590.78,-748.97 590.78,-808.97 931.78,-808.97 931.78,-748.97 590.78,-748.97"/>
<text text-anchor="start" x="601.78" y="-769.17" font-family="Helvetica,sans-Serif" font-size="32.00" fill="#29235c">licence &#160;&#160;&#160;</text>
<text text-anchor="start" x="739.44" y="-770.17" font-family="Helvetica,sans-Serif" font-style="italic" font-size="32.00" fill="#29235c">varchar(255)</text>
<polygon fill="#e7e2dd" stroke="transparent" points="590.78,-688.97 590.78,-748.97 931.78,-748.97 931.78,-688.97 590.78,-688.97"/>
<polygon fill="none" stroke="#29235c" points="590.78,-688.97 590.78,-748.97 931.78,-748.97 931.78,-688.97 590.78,-688.97"/>
<text text-anchor="start" x="601.44" y="-709.17" font-family="Helvetica,sans-Serif" font-size="32.00" fill="#29235c">version &#160;&#160;&#160;</text>
<text text-anchor="start" x="739.61" y="-710.17" font-family="Helvetica,sans-Serif" font-style="italic" font-size="32.00" fill="#29235c">varchar(255)</text>
<polygon fill="none" stroke="#29235c" stroke-width="2" points="589.28,-687.97 589.28,-989.97 932.28,-989.97 932.28,-687.97 589.28,-687.97"/>
</g>
<!-- logiciel_instal&#45;&gt;logiciel -->
<!-- logiciel_instal&#45;&gt;logiciel -->
<g id="edge4" class="edge">
<title>logiciel_instal:e&#45;&gt;logiciel:w</title>
<path fill="none" stroke="#29235c" stroke-width="3" d="M409.42,-778.97C502.22,-778.97 494.24,-890.46 579.76,-898.51"/>
<polygon fill="#29235c" stroke="#29235c" stroke-width="3" points="579.63,-902.01 589.78,-898.97 579.95,-895.02 579.63,-902.01"/>
<text text-anchor="middle" x="598.68" y="-908.57" font-family="Helvetica,sans-Serif" font-size="32.00" fill="#29235c">1</text>
<text text-anchor="middle" x="403.19" y="-788.57" font-family="Helvetica,sans-Serif" font-size="32.00" fill="#29235c">*</text>
</g>
<!-- technicien -->
<g id="technicien" class="node">
<title>technicien</title>
<ellipse fill="none" stroke="black" stroke-width="0" cx="760.78" cy="-314.97" rx="214.92" ry="214.92"/>
<polygon fill="#1d71b8" stroke="transparent" points="610.78,-404.97 610.78,-464.97 910.78,-464.97 910.78,-404.97 610.78,-404.97"/>
<polygon fill="none" stroke="#29235c" points="610.78,-404.97 610.78,-464.97 910.78,-464.97 910.78,-404.97 610.78,-404.97"/>
<text text-anchor="start" x="626.52" y="-426.17" font-family="Helvetica,sans-Serif" font-weight="bold" font-size="32.00" fill="#ffffff"> &#160;&#160;&#160;&#160;&#160;&#160;technicien &#160;&#160;&#160;&#160;&#160;&#160;</text>
<polygon fill="#e7e2dd" stroke="transparent" points="610.78,-344.97 610.78,-404.97 910.78,-404.97 910.78,-344.97 610.78,-344.97"/>
<polygon fill="none" stroke="#29235c" points="610.78,-344.97 610.78,-404.97 910.78,-404.97 910.78,-344.97 610.78,-344.97"/>
<text text-anchor="start" x="621.78" y="-366.17" font-family="Helvetica,sans-Serif" font-weight="bold" font-size="32.00" fill="#29235c">id</text>
<text text-anchor="start" x="646.67" y="-366.17" font-family="Helvetica,sans-Serif" font-size="32.00" fill="#29235c"> &#160;&#160;&#160;</text>
<text text-anchor="start" x="866" y="-366.17" font-family="Helvetica,sans-Serif" font-style="italic" font-size="32.00" fill="#29235c">int</text>
<polygon fill="#e7e2dd" stroke="transparent" points="610.78,-284.97 610.78,-344.97 910.78,-344.97 910.78,-284.97 610.78,-284.97"/>
<polygon fill="none" stroke="#29235c" points="610.78,-284.97 610.78,-344.97 910.78,-344.97 910.78,-284.97 610.78,-284.97"/>
<text text-anchor="start" x="621.38" y="-305.17" font-family="Helvetica,sans-Serif" font-size="32.00" fill="#29235c">nom &#160;&#160;&#160;</text>
<text text-anchor="start" x="718.61" y="-306.17" font-family="Helvetica,sans-Serif" font-style="italic" font-size="32.00" fill="#29235c">varchar(255)</text>
<polygon fill="#e7e2dd" stroke="transparent" points="610.78,-224.97 610.78,-284.97 910.78,-284.97 910.78,-224.97 610.78,-224.97"/>
<polygon fill="none" stroke="#29235c" points="610.78,-224.97 610.78,-284.97 910.78,-284.97 910.78,-224.97 610.78,-224.97"/>
<text text-anchor="start" x="621.78" y="-245.17" font-family="Helvetica,sans-Serif" font-size="32.00" fill="#29235c">dateInterv &#160;&#160;&#160;</text>
<text text-anchor="start" x="837.53" y="-246.17" font-family="Helvetica,sans-Serif" font-style="italic" font-size="32.00" fill="#29235c">date</text>
<polygon fill="#e7e2dd" stroke="transparent" points="610.78,-164.97 610.78,-224.97 910.78,-224.97 910.78,-164.97 610.78,-164.97"/>
<polygon fill="none" stroke="#29235c" points="610.78,-164.97 610.78,-224.97 910.78,-224.97 910.78,-164.97 610.78,-164.97"/>
<text text-anchor="start" x="621.78" y="-185.17" font-family="Helvetica,sans-Serif" font-size="32.00" fill="#29235c">pcInterv &#160;&#160;&#160;</text>
<text text-anchor="start" x="866" y="-186.17" font-family="Helvetica,sans-Serif" font-style="italic" font-size="32.00" fill="#29235c">int</text>
<polygon fill="none" stroke="#29235c" stroke-width="2" points="609.78,-163.97 609.78,-465.97 911.78,-465.97 911.78,-163.97 609.78,-163.97"/>
</g>
<!-- logiciel_instal&#45;&gt;technicien -->
<!-- logiciel_instal&#45;&gt;technicien -->
<g id="edge16" class="edge">
<title>logiciel_instal:e&#45;&gt;technicien:w</title>
<path fill="none" stroke="#29235c" stroke-width="3" d="M409.42,-718.97C582.89,-718.97 438.72,-388.28 599.79,-375.36"/>
<polygon fill="#29235c" stroke="#29235c" stroke-width="3" points="599.93,-378.86 609.78,-374.97 599.66,-371.86 599.93,-378.86"/>
<text text-anchor="middle" x="618.68" y="-384.57" font-family="Helvetica,sans-Serif" font-size="32.00" fill="#29235c">1</text>
<text text-anchor="middle" x="403.19" y="-728.57" font-family="Helvetica,sans-Serif" font-size="32.00" fill="#29235c">*</text>
</g>
<!-- technicien&#45;&gt;pc -->
<!-- technicien&#45;&gt;pc -->
<g id="edge14" class="edge">
<title>technicien:e&#45;&gt;pc:w</title>
<path fill="none" stroke="#29235c" stroke-width="3" d="M911.78,-194.97C1067.84,-194.97 950.59,-484.51 1094.37,-497.52"/>
<polygon fill="#29235c" stroke="#29235c" stroke-width="3" points="1094.55,-501.03 1104.7,-497.97 1094.86,-494.04 1094.55,-501.03"/>
<text text-anchor="middle" x="1113.59" y="-469.17" font-family="Helvetica,sans-Serif" font-size="32.00" fill="#29235c">1</text>
<text text-anchor="middle" x="918.01" y="-204.57" font-family="Helvetica,sans-Serif" font-size="32.00" fill="#29235c">*</text>
</g>
<!-- maj -->
<g id="maj" class="node">
<title>maj</title>
<ellipse fill="none" stroke="black" stroke-width="0" cx="240.42" cy="-352.97" rx="167.67" ry="214.92"/>
<polygon fill="#1d71b8" stroke="transparent" points="124.42,-442.97 124.42,-502.97 357.42,-502.97 357.42,-442.97 124.42,-442.97"/>
<polygon fill="none" stroke="#29235c" points="124.42,-442.97 124.42,-502.97 357.42,-502.97 357.42,-442.97 124.42,-442.97"/>
<text text-anchor="start" x="152.9" y="-464.17" font-family="Helvetica,sans-Serif" font-weight="bold" font-size="32.00" fill="#ffffff"> &#160;&#160;&#160;&#160;&#160;&#160;maj &#160;&#160;&#160;&#160;&#160;&#160;</text>
<polygon fill="#e7e2dd" stroke="transparent" points="124.42,-382.97 124.42,-442.97 357.42,-442.97 357.42,-382.97 124.42,-382.97"/>
<polygon fill="none" stroke="#29235c" points="124.42,-382.97 124.42,-442.97 357.42,-442.97 357.42,-382.97 124.42,-382.97"/>
<text text-anchor="start" x="135.42" y="-404.17" font-family="Helvetica,sans-Serif" font-weight="bold" font-size="32.00" fill="#29235c">id</text>
<text text-anchor="start" x="160.31" y="-404.17" font-family="Helvetica,sans-Serif" font-size="32.00" fill="#29235c"> &#160;&#160;&#160;</text>
<text text-anchor="start" x="312.63" y="-404.17" font-family="Helvetica,sans-Serif" font-style="italic" font-size="32.00" fill="#29235c">int</text>
<polygon fill="#e7e2dd" stroke="transparent" points="124.42,-322.97 124.42,-382.97 357.42,-382.97 357.42,-322.97 124.42,-322.97"/>
<polygon fill="none" stroke="#29235c" points="124.42,-322.97 124.42,-382.97 357.42,-382.97 357.42,-322.97 124.42,-322.97"/>
<text text-anchor="start" x="135.42" y="-343.17" font-family="Helvetica,sans-Serif" font-size="32.00" fill="#29235c">pcMaj &#160;&#160;&#160;</text>
<text text-anchor="start" x="312.63" y="-344.17" font-family="Helvetica,sans-Serif" font-style="italic" font-size="32.00" fill="#29235c">int</text>
<polygon fill="#e7e2dd" stroke="transparent" points="124.42,-262.97 124.42,-322.97 357.42,-322.97 357.42,-262.97 124.42,-262.97"/>
<polygon fill="none" stroke="#29235c" points="124.42,-262.97 124.42,-322.97 357.42,-322.97 357.42,-262.97 124.42,-262.97"/>
<text text-anchor="start" x="135.42" y="-283.17" font-family="Helvetica,sans-Serif" font-size="32.00" fill="#29235c">techMaj &#160;&#160;&#160;</text>
<text text-anchor="start" x="312.63" y="-284.17" font-family="Helvetica,sans-Serif" font-style="italic" font-size="32.00" fill="#29235c">int</text>
<polygon fill="#e7e2dd" stroke="transparent" points="124.42,-202.97 124.42,-262.97 357.42,-262.97 357.42,-202.97 124.42,-202.97"/>
<polygon fill="none" stroke="#29235c" points="124.42,-202.97 124.42,-262.97 357.42,-262.97 357.42,-202.97 124.42,-202.97"/>
<text text-anchor="start" x="135.23" y="-223.17" font-family="Helvetica,sans-Serif" font-size="32.00" fill="#29235c">dateMaj &#160;&#160;&#160;</text>
<text text-anchor="start" x="284.29" y="-224.17" font-family="Helvetica,sans-Serif" font-style="italic" font-size="32.00" fill="#29235c">date</text>
<polygon fill="none" stroke="#29235c" stroke-width="2" points="122.92,-201.97 122.92,-503.97 357.92,-503.97 357.92,-201.97 122.92,-201.97"/>
</g>
<!-- maj&#45;&gt;pc -->
<!-- maj&#45;&gt;pc -->
<g id="edge10" class="edge">
<title>maj:e&#45;&gt;pc:w</title>
<path fill="none" stroke="#29235c" stroke-width="3" d="M358.42,-352.97C494.49,-352.97 398.31,-157.82 516.83,-90.97 705.71,15.54 834.09,42.83 1004.74,-90.97 1148.52,-203.72 927.16,-486.91 1094.51,-497.66"/>
<polygon fill="#29235c" stroke="#29235c" stroke-width="3" points="1094.59,-501.16 1104.7,-497.97 1094.81,-494.17 1094.59,-501.16"/>
<text text-anchor="middle" x="1095.8" y="-507.57" font-family="Helvetica,sans-Serif" font-size="32.00" fill="#29235c">1</text>
<text text-anchor="middle" x="352.19" y="-362.57" font-family="Helvetica,sans-Serif" font-size="32.00" fill="#29235c">*</text>
</g>
<!-- maj&#45;&gt;technicien -->
<!-- maj&#45;&gt;technicien -->
<g id="edge12" class="edge">
<title>maj:e&#45;&gt;technicien:w</title>
<path fill="none" stroke="#29235c" stroke-width="3" d="M358.42,-292.97C472.49,-292.97 491.23,-370.24 599.71,-374.77"/>
<polygon fill="#29235c" stroke="#29235c" stroke-width="3" points="599.71,-378.27 609.78,-374.97 599.86,-371.27 599.71,-378.27"/>
<text text-anchor="middle" x="618.68" y="-346.17" font-family="Helvetica,sans-Serif" font-size="32.00" fill="#29235c">1</text>
<text text-anchor="middle" x="352.19" y="-302.57" font-family="Helvetica,sans-Serif" font-size="32.00" fill="#29235c">*</text>
</g>
</g>
</svg>
