<?xml version="1.0" encoding="UTF-8" standalone="no"?>
<!DOCTYPE svg PUBLIC "-//W3C//DTD SVG 1.1//EN"
 "http://www.w3.org/Graphics/SVG/1.1/DTD/svg11.dtd">
<!-- Generated by graphviz version 2.47.0 (20210316.0004)
 -->
<!-- Title: dbml Pages: 1 -->
<svg width="2157pt" height="1132pt"
 viewBox="0.00 0.00 2156.71 1131.61" xmlns="http://www.w3.org/2000/svg" xmlns:xlink="http://www.w3.org/1999/xlink">
<g id="graph0" class="graph" transform="scale(1 1) rotate(0) translate(4 1127.61)">
<title>dbml</title>
<!-- pc -->
<g id="pc" class="node">
<title>pc</title>
<ellipse fill="none" stroke="black" stroke-width="0" cx="1361.76" cy="-360.97" rx="250.13" ry="342.48"/>
<polygon fill="#1d71b8" stroke="transparent" points="1186.76,-540.97 1186.76,-600.97 1536.76,-600.97 1536.76,-540.97 1186.76,-540.97"/>
<polygon fill="none" stroke="#29235c" points="1186.76,-540.97 1186.76,-600.97 1536.76,-600.97 1536.76,-540.97 1186.76,-540.97"/>
<text text-anchor="start" x="1282.62" y="-562.17" font-family="Helvetica,sans-Serif" font-weight="bold" font-size="32.00" fill="#ffffff"> &#160;&#160;&#160;&#160;&#160;&#160;pc &#160;&#160;&#160;&#160;&#160;&#160;</text>
<polygon fill="#e7e2dd" stroke="transparent" points="1186.76,-480.97 1186.76,-540.97 1536.76,-540.97 1536.76,-480.97 1186.76,-480.97"/>
<polygon fill="none" stroke="#29235c" points="1186.76,-480.97 1186.76,-540.97 1536.76,-540.97 1536.76,-480.97 1186.76,-480.97"/>
<text text-anchor="start" x="1197.76" y="-502.17" font-family="Helvetica,sans-Serif" font-weight="bold" font-size="32.00" fill="#29235c">id</text>
<text text-anchor="start" x="1222.65" y="-502.17" font-family="Helvetica,sans-Serif" font-size="32.00" fill="#29235c"> &#160;&#160;&#160;</text>
<text text-anchor="start" x="1474.22" y="-502.17" font-family="Helvetica,sans-Serif" font-style="italic" font-size="32.00" fill="#29235c">INT</text>
<polygon fill="#e7e2dd" stroke="transparent" points="1186.76,-420.97 1186.76,-480.97 1536.76,-480.97 1536.76,-420.97 1186.76,-420.97"/>
<polygon fill="none" stroke="#29235c" points="1186.76,-420.97 1186.76,-480.97 1536.76,-480.97 1536.76,-420.97 1186.76,-420.97"/>
<text text-anchor="start" x="1197.76" y="-441.17" font-family="Helvetica,sans-Serif" font-size="32.00" fill="#29235c">marqueId &#160;&#160;&#160;</text>
<text text-anchor="start" x="1474.22" y="-442.17" font-family="Helvetica,sans-Serif" font-style="italic" font-size="32.00" fill="#29235c">INT</text>
<polygon fill="#e7e2dd" stroke="transparent" points="1186.76,-360.97 1186.76,-420.97 1536.76,-420.97 1536.76,-360.97 1186.76,-360.97"/>
<polygon fill="none" stroke="#29235c" points="1186.76,-360.97 1186.76,-420.97 1536.76,-420.97 1536.76,-360.97 1186.76,-360.97"/>
<text text-anchor="start" x="1197.76" y="-381.17" font-family="Helvetica,sans-Serif" font-size="32.00" fill="#29235c">osId &#160;&#160;&#160;</text>
<text text-anchor="start" x="1474.22" y="-382.17" font-family="Helvetica,sans-Serif" font-style="italic" font-size="32.00" fill="#29235c">INT</text>
<polygon fill="#e7e2dd" stroke="transparent" points="1186.76,-300.97 1186.76,-360.97 1536.76,-360.97 1536.76,-300.97 1186.76,-300.97"/>
<polygon fill="none" stroke="#29235c" points="1186.76,-300.97 1186.76,-360.97 1536.76,-360.97 1536.76,-300.97 1186.76,-300.97"/>
<text text-anchor="start" x="1197.76" y="-321.17" font-family="Helvetica,sans-Serif" font-size="32.00" fill="#29235c">disqueGB &#160;&#160;&#160;</text>
<text text-anchor="start" x="1474.22" y="-322.17" font-family="Helvetica,sans-Serif" font-style="italic" font-size="32.00" fill="#29235c">INT</text>
<polygon fill="#e7e2dd" stroke="transparent" points="1186.76,-240.97 1186.76,-300.97 1536.76,-300.97 1536.76,-240.97 1186.76,-240.97"/>
<polygon fill="none" stroke="#29235c" points="1186.76,-240.97 1186.76,-300.97 1536.76,-300.97 1536.76,-240.97 1186.76,-240.97"/>
<text text-anchor="start" x="1197.76" y="-261.17" font-family="Helvetica,sans-Serif" font-size="32.00" fill="#29235c">ramGB &#160;&#160;&#160;</text>
<text text-anchor="start" x="1474.22" y="-262.17" font-family="Helvetica,sans-Serif" font-style="italic" font-size="32.00" fill="#29235c">INT</text>
<polygon fill="#e7e2dd" stroke="transparent" points="1186.76,-180.97 1186.76,-240.97 1536.76,-240.97 1536.76,-180.97 1186.76,-180.97"/>
<polygon fill="none" stroke="#29235c" points="1186.76,-180.97 1186.76,-240.97 1536.76,-240.97 1536.76,-180.97 1186.76,-180.97"/>
<text text-anchor="start" x="1197.76" y="-201.17" font-family="Helvetica,sans-Serif" font-size="32.00" fill="#29235c">dateAchat &#160;&#160;&#160;</text>
<text text-anchor="start" x="1440.43" y="-202.17" font-family="Helvetica,sans-Serif" font-style="italic" font-size="32.00" fill="#29235c">DATE</text>
<polygon fill="#e7e2dd" stroke="transparent" points="1186.76,-120.97 1186.76,-180.97 1536.76,-180.97 1536.76,-120.97 1186.76,-120.97"/>
<polygon fill="none" stroke="#29235c" points="1186.76,-120.97 1186.76,-180.97 1536.76,-180.97 1536.76,-120.97 1186.76,-120.97"/>
<text text-anchor="start" x="1197.36" y="-141.17" font-family="Helvetica,sans-Serif" font-size="32.00" fill="#29235c">user &#160;&#160;&#160;</text>
<text text-anchor="start" x="1294.71" y="-142.17" font-family="Helvetica,sans-Serif" font-style="italic" font-size="32.00" fill="#29235c">VARCHAR(255)</text>
<polygon fill="none" stroke="#29235c" stroke-width="2" points="1185.76,-119.97 1185.76,-601.97 1537.76,-601.97 1537.76,-119.97 1185.76,-119.97"/>
</g>
<!-- marque -->
<g id="marque" class="node">
<title>marque</title>
<ellipse fill="none" stroke="black" stroke-width="0" cx="1898.39" cy="-589.97" rx="250.13" ry="130.22"/>
<polygon fill="#1d71b8" stroke="transparent" points="1723.39,-619.97 1723.39,-679.97 2073.39,-679.97 2073.39,-619.97 1723.39,-619.97"/>
<polygon fill="none" stroke="#29235c" points="1723.39,-619.97 1723.39,-679.97 2073.39,-679.97 2073.39,-619.97 1723.39,-619.97"/>
<text text-anchor="start" x="1781.91" y="-641.17" font-family="Helvetica,sans-Serif" font-weight="bold" font-size="32.00" fill="#ffffff"> &#160;&#160;&#160;&#160;&#160;&#160;marque &#160;&#160;&#160;&#160;&#160;&#160;</text>
<polygon fill="#e7e2dd" stroke="transparent" points="1723.39,-559.97 1723.39,-619.97 2073.39,-619.97 2073.39,-559.97 1723.39,-559.97"/>
<polygon fill="none" stroke="#29235c" points="1723.39,-559.97 1723.39,-619.97 2073.39,-619.97 2073.39,-559.97 1723.39,-559.97"/>
<text text-anchor="start" x="1734.39" y="-581.17" font-family="Helvetica,sans-Serif" font-weight="bold" font-size="32.00" fill="#29235c">id</text>
<text text-anchor="start" x="1759.28" y="-581.17" font-family="Helvetica,sans-Serif" font-size="32.00" fill="#29235c"> &#160;&#160;&#160;</text>
<text text-anchor="start" x="2010.85" y="-581.17" font-family="Helvetica,sans-Serif" font-style="italic" font-size="32.00" fill="#29235c">INT</text>
<polygon fill="#e7e2dd" stroke="transparent" points="1723.39,-499.97 1723.39,-559.97 2073.39,-559.97 2073.39,-499.97 1723.39,-499.97"/>
<polygon fill="none" stroke="#29235c" points="1723.39,-499.97 1723.39,-559.97 2073.39,-559.97 2073.39,-499.97 1723.39,-499.97"/>
<text text-anchor="start" x="1733.99" y="-520.17" font-family="Helvetica,sans-Serif" font-size="32.00" fill="#29235c">nom &#160;&#160;&#160;</text>
<text text-anchor="start" x="1831.35" y="-521.17" font-family="Helvetica,sans-Serif" font-style="italic" font-size="32.00" fill="#29235c">VARCHAR(255)</text>
<polygon fill="none" stroke="#29235c" stroke-width="2" points="1722.39,-498.97 1722.39,-680.97 2074.39,-680.97 2074.39,-498.97 1722.39,-498.97"/>
</g>
<!-- pc&#45;&gt;marque -->
<!-- pc&#45;&gt;marque -->
<g id="edge6" class="edge">
<title>pc:e&#45;&gt;marque:w</title>
<path fill="none" stroke="#29235c" stroke-width="3" d="M1537.76,-450.97C1636.97,-450.97 1620.96,-580.63 1712.29,-589.49"/>
<polygon fill="#29235c" stroke="#29235c" stroke-width="3" points="1712.24,-592.99 1722.39,-589.97 1712.57,-586 1712.24,-592.99"/>
<text text-anchor="middle" x="1713.5" y="-599.57" font-family="Helvetica,sans-Serif" font-size="32.00" fill="#29235c">1</text>
<text text-anchor="middle" x="1543.99" y="-460.57" font-family="Helvetica,sans-Serif" font-size="32.00" fill="#29235c">*</text>
</g>
<!-- os -->
<g id="os" class="node">
<title>os</title>
<ellipse fill="none" stroke="black" stroke-width="0" cx="1898.39" cy="-311.97" rx="250.13" ry="130.22"/>
<polygon fill="#1d71b8" stroke="transparent" points="1723.39,-341.97 1723.39,-401.97 2073.39,-401.97 2073.39,-341.97 1723.39,-341.97"/>
<polygon fill="none" stroke="#29235c" points="1723.39,-341.97 1723.39,-401.97 2073.39,-401.97 2073.39,-341.97 1723.39,-341.97"/>
<text text-anchor="start" x="1819.25" y="-363.17" font-family="Helvetica,sans-Serif" font-weight="bold" font-size="32.00" fill="#ffffff"> &#160;&#160;&#160;&#160;&#160;&#160;os &#160;&#160;&#160;&#160;&#160;&#160;</text>
<polygon fill="#e7e2dd" stroke="transparent" points="1723.39,-281.97 1723.39,-341.97 2073.39,-341.97 2073.39,-281.97 1723.39,-281.97"/>
<polygon fill="none" stroke="#29235c" points="1723.39,-281.97 1723.39,-341.97 2073.39,-341.97 2073.39,-281.97 1723.39,-281.97"/>
<text text-anchor="start" x="1734.39" y="-303.17" font-family="Helvetica,sans-Serif" font-weight="bold" font-size="32.00" fill="#29235c">id</text>
<text text-anchor="start" x="1759.28" y="-303.17" font-family="Helvetica,sans-Serif" font-size="32.00" fill="#29235c"> &#160;&#160;&#160;</text>
<text text-anchor="start" x="2010.85" y="-303.17" font-family="Helvetica,sans-Serif" font-style="italic" font-size="32.00" fill="#29235c">INT</text>
<polygon fill="#e7e2dd" stroke="transparent" points="1723.39,-221.97 1723.39,-281.97 2073.39,-281.97 2073.39,-221.97 1723.39,-221.97"/>
<polygon fill="none" stroke="#29235c" points="1723.39,-221.97 1723.39,-281.97 2073.39,-281.97 2073.39,-221.97 1723.39,-221.97"/>
<text text-anchor="start" x="1733.99" y="-242.17" font-family="Helvetica,sans-Serif" font-size="32.00" fill="#29235c">nom &#160;&#160;&#160;</text>
<text text-anchor="start" x="1831.35" y="-243.17" font-family="Helvetica,sans-Serif" font-style="italic" font-size="32.00" fill="#29235c">VARCHAR(255)</text>
<polygon fill="none" stroke="#29235c" stroke-width="2" points="1722.39,-220.97 1722.39,-402.97 2074.39,-402.97 2074.39,-220.97 1722.39,-220.97"/>
</g>
<!-- pc&#45;&gt;os -->
<!-- pc&#45;&gt;os -->
<g id="edge8" class="edge">
<title>pc:e&#45;&gt;os:w</title>
<path fill="none" stroke="#29235c" stroke-width="3" d="M1537.76,-390.97C1623.53,-390.97 1632.53,-318.02 1712.31,-312.32"/>
<polygon fill="#29235c" stroke="#29235c" stroke-width="3" points="1712.52,-315.81 1722.39,-311.97 1712.28,-308.82 1712.52,-315.81"/>
<text text-anchor="middle" x="1713.5" y="-321.57" font-family="Helvetica,sans-Serif" font-size="32.00" fill="#29235c">1</text>
<text text-anchor="middle" x="1543.99" y="-400.57" font-family="Helvetica,sans-Serif" font-size="32.00" fill="#29235c">*</text>
</g>
<!-- logiciel_instal -->
<g id="logiciel_instal" class="node">
<title>logiciel_instal</title>
<ellipse fill="none" stroke="black" stroke-width="0" cx="240.42" cy="-851.97" rx="240.33" ry="214.92"/>
<polygon fill="#1d71b8" stroke="transparent" points="72.42,-941.97 72.42,-1001.97 408.42,-1001.97 408.42,-941.97 72.42,-941.97"/>
<polygon fill="none" stroke="#29235c" points="72.42,-941.97 72.42,-1001.97 408.42,-1001.97 408.42,-941.97 72.42,-941.97"/>
<text text-anchor="start" x="83.05" y="-963.17" font-family="Helvetica,sans-Serif" font-weight="bold" font-size="32.00" fill="#ffffff"> &#160;&#160;&#160;&#160;&#160;&#160;logiciel_instal &#160;&#160;&#160;&#160;&#160;&#160;</text>
<polygon fill="#e7e2dd" stroke="transparent" points="72.42,-881.97 72.42,-941.97 408.42,-941.97 408.42,-881.97 72.42,-881.97"/>
<polygon fill="none" stroke="#29235c" points="72.42,-881.97 72.42,-941.97 408.42,-941.97 408.42,-881.97 72.42,-881.97"/>
<text text-anchor="start" x="83.42" y="-903.17" font-family="Helvetica,sans-Serif" font-weight="bold" font-size="32.00" fill="#29235c">id</text>
<text text-anchor="start" x="108.31" y="-903.17" font-family="Helvetica,sans-Serif" font-size="32.00" fill="#29235c"> &#160;&#160;&#160;</text>
<text text-anchor="start" x="345.87" y="-903.17" font-family="Helvetica,sans-Serif" font-style="italic" font-size="32.00" fill="#29235c">INT</text>
<polygon fill="#e7e2dd" stroke="transparent" points="72.42,-821.97 72.42,-881.97 408.42,-881.97 408.42,-821.97 72.42,-821.97"/>
<polygon fill="none" stroke="#29235c" points="72.42,-821.97 72.42,-881.97 408.42,-881.97 408.42,-821.97 72.42,-821.97"/>
<text text-anchor="start" x="83.42" y="-842.17" font-family="Helvetica,sans-Serif" font-size="32.00" fill="#29235c">pcId &#160;&#160;&#160;</text>
<text text-anchor="start" x="345.87" y="-843.17" font-family="Helvetica,sans-Serif" font-style="italic" font-size="32.00" fill="#29235c">INT</text>
<polygon fill="#e7e2dd" stroke="transparent" points="72.42,-761.97 72.42,-821.97 408.42,-821.97 408.42,-761.97 72.42,-761.97"/>
<polygon fill="none" stroke="#29235c" points="72.42,-761.97 72.42,-821.97 408.42,-821.97 408.42,-761.97 72.42,-761.97"/>
<text text-anchor="start" x="83.42" y="-782.17" font-family="Helvetica,sans-Serif" font-size="32.00" fill="#29235c">logicielId &#160;&#160;&#160;</text>
<text text-anchor="start" x="345.87" y="-783.17" font-family="Helvetica,sans-Serif" font-style="italic" font-size="32.00" fill="#29235c">INT</text>
<polygon fill="#e7e2dd" stroke="transparent" points="72.42,-701.97 72.42,-761.97 408.42,-761.97 408.42,-701.97 72.42,-701.97"/>
<polygon fill="none" stroke="#29235c" points="72.42,-701.97 72.42,-761.97 408.42,-761.97 408.42,-701.97 72.42,-701.97"/>
<text text-anchor="start" x="83.42" y="-722.17" font-family="Helvetica,sans-Serif" font-size="32.00" fill="#29235c">techInstal &#160;&#160;&#160;</text>
<text text-anchor="start" x="345.87" y="-723.17" font-family="Helvetica,sans-Serif" font-style="italic" font-size="32.00" fill="#29235c">INT</text>
<polygon fill="none" stroke="#29235c" stroke-width="2" points="71.42,-700.97 71.42,-1002.97 409.42,-1002.97 409.42,-700.97 71.42,-700.97"/>
</g>
<!-- logiciel_instal&#45;&gt;pc -->
<!-- logiciel_instal&#45;&gt;pc -->
<g id="edge2" class="edge">
<title>logiciel_instal:e&#45;&gt;pc:w</title>
<path fill="none" stroke="#29235c" stroke-width="3" d="M409.42,-851.97C519.83,-851.97 425.83,-690.49 516.83,-627.97 619.48,-557.44 957.6,-623.24 1075.45,-582.97 1127.39,-565.22 1127.44,-517.47 1175.48,-511.57"/>
<polygon fill="#29235c" stroke="#29235c" stroke-width="3" points="1175.98,-515.04 1185.76,-510.97 1175.58,-508.06 1175.98,-515.04"/>
<text text-anchor="middle" x="1194.66" y="-520.57" font-family="Helvetica,sans-Serif" font-size="32.00" fill="#29235c">1</text>
<text text-anchor="middle" x="403.19" y="-861.57" font-family="Helvetica,sans-Serif" font-size="32.00" fill="#29235c">*</text>
</g>
<!-- logiciel -->
<g id="logiciel" class="node">
<title>logiciel</title>
<ellipse fill="none" stroke="black" stroke-width="0" cx="796.14" cy="-851.97" rx="279.11" ry="214.92"/>
<polygon fill="#1d71b8" stroke="transparent" points="601.14,-941.97 601.14,-1001.97 992.14,-1001.97 992.14,-941.97 601.14,-941.97"/>
<polygon fill="none" stroke="#29235c" points="601.14,-941.97 601.14,-1001.97 992.14,-1001.97 992.14,-941.97 601.14,-941.97"/>
<text text-anchor="start" x="685.51" y="-963.17" font-family="Helvetica,sans-Serif" font-weight="bold" font-size="32.00" fill="#ffffff"> &#160;&#160;&#160;&#160;&#160;&#160;logiciel &#160;&#160;&#160;&#160;&#160;&#160;</text>
<polygon fill="#e7e2dd" stroke="transparent" points="601.14,-881.97 601.14,-941.97 992.14,-941.97 992.14,-881.97 601.14,-881.97"/>
<polygon fill="none" stroke="#29235c" points="601.14,-881.97 601.14,-941.97 992.14,-941.97 992.14,-881.97 601.14,-881.97"/>
<text text-anchor="start" x="612.14" y="-903.17" font-family="Helvetica,sans-Serif" font-weight="bold" font-size="32.00" fill="#29235c">id</text>
<text text-anchor="start" x="637.03" y="-903.17" font-family="Helvetica,sans-Serif" font-size="32.00" fill="#29235c"> &#160;&#160;&#160;</text>
<text text-anchor="start" x="929.6" y="-903.17" font-family="Helvetica,sans-Serif" font-style="italic" font-size="32.00" fill="#29235c">INT</text>
<polygon fill="#e7e2dd" stroke="transparent" points="601.14,-821.97 601.14,-881.97 992.14,-881.97 992.14,-821.97 601.14,-821.97"/>
<polygon fill="none" stroke="#29235c" points="601.14,-821.97 601.14,-881.97 992.14,-881.97 992.14,-821.97 601.14,-821.97"/>
<text text-anchor="start" x="612.14" y="-842.17" font-family="Helvetica,sans-Serif" font-size="32.00" fill="#29235c">nom &#160;&#160;&#160;</text>
<text text-anchor="start" x="750.04" y="-843.17" font-family="Helvetica,sans-Serif" font-style="italic" font-size="32.00" fill="#29235c">VARCHAR(255)</text>
<polygon fill="#e7e2dd" stroke="transparent" points="601.14,-761.97 601.14,-821.97 992.14,-821.97 992.14,-761.97 601.14,-761.97"/>
<polygon fill="none" stroke="#29235c" points="601.14,-761.97 601.14,-821.97 992.14,-821.97 992.14,-761.97 601.14,-761.97"/>
<text text-anchor="start" x="612.14" y="-782.17" font-family="Helvetica,sans-Serif" font-size="32.00" fill="#29235c">licence &#160;&#160;&#160;</text>
<text text-anchor="start" x="750.04" y="-783.17" font-family="Helvetica,sans-Serif" font-style="italic" font-size="32.00" fill="#29235c">VARCHAR(255)</text>
<polygon fill="#e7e2dd" stroke="transparent" points="601.14,-701.97 601.14,-761.97 992.14,-761.97 992.14,-701.97 601.14,-701.97"/>
<polygon fill="none" stroke="#29235c" points="601.14,-701.97 601.14,-761.97 992.14,-761.97 992.14,-701.97 601.14,-701.97"/>
<text text-anchor="start" x="611.79" y="-722.17" font-family="Helvetica,sans-Serif" font-size="32.00" fill="#29235c">version &#160;&#160;&#160;</text>
<text text-anchor="start" x="750.09" y="-723.17" font-family="Helvetica,sans-Serif" font-style="italic" font-size="32.00" fill="#29235c">VARCHAR(255)</text>
<polygon fill="none" stroke="#29235c" stroke-width="2" points="599.64,-700.97 599.64,-1002.97 992.64,-1002.97 992.64,-700.97 599.64,-700.97"/>
</g>
<!-- logiciel_instal&#45;&gt;logiciel -->
<!-- logiciel_instal&#45;&gt;logiciel -->
<g id="edge4" class="edge">
<title>logiciel_instal:e&#45;&gt;logiciel:w</title>
<path fill="none" stroke="#29235c" stroke-width="3" d="M409.42,-791.97C506.04,-791.97 500.53,-903.68 589.97,-911.53"/>
<polygon fill="#29235c" stroke="#29235c" stroke-width="3" points="590,-915.04 600.14,-911.97 590.3,-908.04 590,-915.04"/>
<text text-anchor="middle" x="591.25" y="-921.57" font-family="Helvetica,sans-Serif" font-size="32.00" fill="#29235c">1</text>
<text text-anchor="middle" x="403.19" y="-801.57" font-family="Helvetica,sans-Serif" font-size="32.00" fill="#29235c">*</text>
</g>
<!-- technicien -->
<g id="technicien" class="node">
<title>technicien</title>
<ellipse fill="none" stroke="black" stroke-width="0" cx="796.14" cy="-327.97" rx="250.13" ry="214.92"/>
<polygon fill="#1d71b8" stroke="transparent" points="621.14,-417.97 621.14,-477.97 971.14,-477.97 971.14,-417.97 621.14,-417.97"/>
<polygon fill="none" stroke="#29235c" points="621.14,-417.97 621.14,-477.97 971.14,-477.97 971.14,-417.97 621.14,-417.97"/>
<text text-anchor="start" x="661.87" y="-439.17" font-family="Helvetica,sans-Serif" font-weight="bold" font-size="32.00" fill="#ffffff"> &#160;&#160;&#160;&#160;&#160;&#160;technicien &#160;&#160;&#160;&#160;&#160;&#160;</text>
<polygon fill="#e7e2dd" stroke="transparent" points="621.14,-357.97 621.14,-417.97 971.14,-417.97 971.14,-357.97 621.14,-357.97"/>
<polygon fill="none" stroke="#29235c" points="621.14,-357.97 621.14,-417.97 971.14,-417.97 971.14,-357.97 621.14,-357.97"/>
<text text-anchor="start" x="632.14" y="-379.17" font-family="Helvetica,sans-Serif" font-weight="bold" font-size="32.00" fill="#29235c">id</text>
<text text-anchor="start" x="657.03" y="-379.17" font-family="Helvetica,sans-Serif" font-size="32.00" fill="#29235c"> &#160;&#160;&#160;</text>
<text text-anchor="start" x="908.6" y="-379.17" font-family="Helvetica,sans-Serif" font-style="italic" font-size="32.00" fill="#29235c">INT</text>
<polygon fill="#e7e2dd" stroke="transparent" points="621.14,-297.97 621.14,-357.97 971.14,-357.97 971.14,-297.97 621.14,-297.97"/>
<polygon fill="none" stroke="#29235c" points="621.14,-297.97 621.14,-357.97 971.14,-357.97 971.14,-297.97 621.14,-297.97"/>
<text text-anchor="start" x="631.74" y="-318.17" font-family="Helvetica,sans-Serif" font-size="32.00" fill="#29235c">nom &#160;&#160;&#160;</text>
<text text-anchor="start" x="729.09" y="-319.17" font-family="Helvetica,sans-Serif" font-style="italic" font-size="32.00" fill="#29235c">VARCHAR(255)</text>
<polygon fill="#e7e2dd" stroke="transparent" points="621.14,-237.97 621.14,-297.97 971.14,-297.97 971.14,-237.97 621.14,-237.97"/>
<polygon fill="none" stroke="#29235c" points="621.14,-237.97 621.14,-297.97 971.14,-297.97 971.14,-237.97 621.14,-237.97"/>
<text text-anchor="start" x="632.14" y="-258.17" font-family="Helvetica,sans-Serif" font-size="32.00" fill="#29235c">dateInterv &#160;&#160;&#160;</text>
<text text-anchor="start" x="874.81" y="-259.17" font-family="Helvetica,sans-Serif" font-style="italic" font-size="32.00" fill="#29235c">DATE</text>
<polygon fill="#e7e2dd" stroke="transparent" points="621.14,-177.97 621.14,-237.97 971.14,-237.97 971.14,-177.97 621.14,-177.97"/>
<polygon fill="none" stroke="#29235c" points="621.14,-177.97 621.14,-237.97 971.14,-237.97 971.14,-177.97 621.14,-177.97"/>
<text text-anchor="start" x="632.14" y="-198.17" font-family="Helvetica,sans-Serif" font-size="32.00" fill="#29235c">pcInterv &#160;&#160;&#160;</text>
<text text-anchor="start" x="908.6" y="-199.17" font-family="Helvetica,sans-Serif" font-style="italic" font-size="32.00" fill="#29235c">INT</text>
<polygon fill="none" stroke="#29235c" stroke-width="2" points="620.14,-176.97 620.14,-478.97 972.14,-478.97 972.14,-176.97 620.14,-176.97"/>
</g>
<!-- logiciel_instal&#45;&gt;technicien -->
<!-- logiciel_instal&#45;&gt;technicien -->
<g id="edge16" class="edge">
<title>logiciel_instal:e&#45;&gt;technicien:w</title>
<path fill="none" stroke="#29235c" stroke-width="3" d="M409.42,-731.97C585.21,-731.97 446.5,-401.27 610,-388.36"/>
<polygon fill="#29235c" stroke="#29235c" stroke-width="3" points="610.28,-391.85 620.14,-387.97 610.01,-384.85 610.28,-391.85"/>
<text text-anchor="middle" x="611.25" y="-397.57" font-family="Helvetica,sans-Serif" font-size="32.00" fill="#29235c">1</text>
<text text-anchor="middle" x="403.19" y="-741.57" font-family="Helvetica,sans-Serif" font-size="32.00" fill="#29235c">*</text>
</g>
<!-- technicien&#45;&gt;pc -->
<!-- technicien&#45;&gt;pc -->
<g id="edge14" class="edge">
<title>technicien:e&#45;&gt;pc:w</title>
<path fill="none" stroke="#29235c" stroke-width="3" d="M972.14,-207.97C1133.37,-207.97 1025.84,-498.09 1175.53,-510.55"/>
<polygon fill="#29235c" stroke="#29235c" stroke-width="3" points="1175.63,-514.06 1185.76,-510.97 1175.91,-507.07 1175.63,-514.06"/>
<text text-anchor="middle" x="1194.66" y="-482.17" font-family="Helvetica,sans-Serif" font-size="32.00" fill="#29235c">1</text>
<text text-anchor="middle" x="978.36" y="-217.57" font-family="Helvetica,sans-Serif" font-size="32.00" fill="#29235c">*</text>
</g>
<!-- maj -->
<g id="maj" class="node">
<title>maj</title>
<ellipse fill="none" stroke="black" stroke-width="0" cx="240.42" cy="-365.97" rx="183.7" ry="214.92"/>
<polygon fill="#1d71b8" stroke="transparent" points="112.42,-455.97 112.42,-515.97 368.42,-515.97 368.42,-455.97 112.42,-455.97"/>
<polygon fill="none" stroke="#29235c" points="112.42,-455.97 112.42,-515.97 368.42,-515.97 368.42,-455.97 112.42,-455.97"/>
<text text-anchor="start" x="152.4" y="-477.17" font-family="Helvetica,sans-Serif" font-weight="bold" font-size="32.00" fill="#ffffff"> &#160;&#160;&#160;&#160;&#160;&#160;maj &#160;&#160;&#160;&#160;&#160;&#160;</text>
<polygon fill="#e7e2dd" stroke="transparent" points="112.42,-395.97 112.42,-455.97 368.42,-455.97 368.42,-395.97 112.42,-395.97"/>
<polygon fill="none" stroke="#29235c" points="112.42,-395.97 112.42,-455.97 368.42,-455.97 368.42,-395.97 112.42,-395.97"/>
<text text-anchor="start" x="123.42" y="-417.17" font-family="Helvetica,sans-Serif" font-weight="bold" font-size="32.00" fill="#29235c">id</text>
<text text-anchor="start" x="148.31" y="-417.17" font-family="Helvetica,sans-Serif" font-size="32.00" fill="#29235c"> &#160;&#160;&#160;</text>
<text text-anchor="start" x="305.87" y="-417.17" font-family="Helvetica,sans-Serif" font-style="italic" font-size="32.00" fill="#29235c">INT</text>
<polygon fill="#e7e2dd" stroke="transparent" points="112.42,-335.97 112.42,-395.97 368.42,-395.97 368.42,-335.97 112.42,-335.97"/>
<polygon fill="none" stroke="#29235c" points="112.42,-335.97 112.42,-395.97 368.42,-395.97 368.42,-335.97 112.42,-335.97"/>
<text text-anchor="start" x="123.42" y="-356.17" font-family="Helvetica,sans-Serif" font-size="32.00" fill="#29235c">pcMaj &#160;&#160;&#160;</text>
<text text-anchor="start" x="305.87" y="-357.17" font-family="Helvetica,sans-Serif" font-style="italic" font-size="32.00" fill="#29235c">INT</text>
<polygon fill="#e7e2dd" stroke="transparent" points="112.42,-275.97 112.42,-335.97 368.42,-335.97 368.42,-275.97 112.42,-275.97"/>
<polygon fill="none" stroke="#29235c" points="112.42,-275.97 112.42,-335.97 368.42,-335.97 368.42,-275.97 112.42,-275.97"/>
<text text-anchor="start" x="123.42" y="-296.17" font-family="Helvetica,sans-Serif" font-size="32.00" fill="#29235c">techMaj &#160;&#160;&#160;</text>
<text text-anchor="start" x="305.87" y="-297.17" font-family="Helvetica,sans-Serif" font-style="italic" font-size="32.00" fill="#29235c">INT</text>
<polygon fill="#e7e2dd" stroke="transparent" points="112.42,-215.97 112.42,-275.97 368.42,-275.97 368.42,-215.97 112.42,-215.97"/>
<polygon fill="none" stroke="#29235c" points="112.42,-215.97 112.42,-275.97 368.42,-275.97 368.42,-215.97 112.42,-215.97"/>
<text text-anchor="start" x="123.23" y="-236.17" font-family="Helvetica,sans-Serif" font-size="32.00" fill="#29235c">dateMaj &#160;&#160;&#160;</text>
<text text-anchor="start" x="272.25" y="-237.17" font-family="Helvetica,sans-Serif" font-style="italic" font-size="32.00" fill="#29235c">DATE</text>
<polygon fill="none" stroke="#29235c" stroke-width="2" points="111.42,-214.97 111.42,-516.97 369.42,-516.97 369.42,-214.97 111.42,-214.97"/>
</g>
<!-- maj&#45;&gt;pc -->
<!-- maj&#45;&gt;pc -->
<g id="edge10" class="edge">
<title>maj:e&#45;&gt;pc:w</title>
<path fill="none" stroke="#29235c" stroke-width="3" d="M369.42,-365.97C503.03,-365.97 401.49,-171.41 516.83,-103.97 731.15,21.36 878.26,46.89 1075.45,-103.97 1221.54,-215.73 1006.6,-500.15 1175.75,-510.67"/>
<polygon fill="#29235c" stroke="#29235c" stroke-width="3" points="1175.66,-514.17 1185.76,-510.97 1175.87,-507.17 1175.66,-514.17"/>
<text text-anchor="middle" x="1176.87" y="-520.57" font-family="Helvetica,sans-Serif" font-size="32.00" fill="#29235c">1</text>
<text text-anchor="middle" x="363.19" y="-375.57" font-family="Helvetica,sans-Serif" font-size="32.00" fill="#29235c">*</text>
</g>
<!-- maj&#45;&gt;technicien -->
<!-- maj&#45;&gt;technicien -->
<g id="edge12" class="edge">
<title>maj:e&#45;&gt;technicien:w</title>
<path fill="none" stroke="#29235c" stroke-width="3" d="M369.42,-305.97C483.22,-305.97 501.86,-383.23 610.09,-387.76"/>
<polygon fill="#29235c" stroke="#29235c" stroke-width="3" points="610.07,-391.26 620.14,-387.97 610.21,-384.26 610.07,-391.26"/>
<text text-anchor="middle" x="629.03" y="-397.57" font-family="Helvetica,sans-Serif" font-size="32.00" fill="#29235c">1</text>
<text text-anchor="middle" x="363.19" y="-315.57" font-family="Helvetica,sans-Serif" font-size="32.00" fill="#29235c">*</text>
</g>
</g>
</svg>
